<?xml version="1.0" encoding="UTF-8"?>
<!DOCTYPE svg PUBLIC "-//W3C//DTD SVG 1.1//EN" "http://www.w3.org/Graphics/SVG/1.1/DTD/svg11.dtd">
<svg xmlns="http://www.w3.org/2000/svg" version="1.1" width="180px" height="180px" style="shape-rendering:geometricPrecision; text-rendering:geometricPrecision; image-rendering:optimizeQuality; fill-rule:evenodd; clip-rule:evenodd" xmlns:xlink="http://www.w3.org/1999/xlink">
<g><path style="opacity:1" fill="#f9fbfa" d="M 46.5,21.5 C 43.5,22.8333 40.5,24.1667 37.5,25.5C 33.9878,24.9455 30.9878,25.6122 28.5,27.5C 27.5,27.5 26.5,27.5 25.5,27.5C 23.2646,27.7947 21.2646,27.4614 19.5,26.5C 19.1583,25.6618 18.4916,25.3284 17.5,25.5C 26.7405,22.0584 36.4071,20.7251 46.5,21.5 Z"/></g>
<g><path style="opacity:1" fill="#f6fcfb" d="M 46.5,21.5 C 57.4996,22.5512 68.4996,23.5512 79.5,24.5C 79.5,24.8333 79.5,25.1667 79.5,25.5C 75.9581,25.1872 72.6248,25.5206 69.5,26.5C 67.5,26.5 65.5,26.5 63.5,26.5C 63.1667,26.5 62.8333,26.5 62.5,26.5C 54.3501,25.5073 46.0168,25.1739 37.5,25.5C 40.5,24.1667 43.5,22.8333 46.5,21.5 Z"/></g>
<g><path style="opacity:1" fill="#e1fbfe" d="M 37.5,25.5 C 46.0168,25.1739 54.3501,25.5073 62.5,26.5C 59.5,26.5 56.5,26.5 53.5,26.5C 45.4659,26.3018 37.4659,26.6351 29.5,27.5C 29.1667,27.5 28.8333,27.5 28.5,27.5C 30.9878,25.6122 33.9878,24.9455 37.5,25.5 Z"/></g>
<g><path style="opacity:1" fill="#ecfcfc" d="M 63.5,26.5 C 65.5,26.5 67.5,26.5 69.5,26.5C 83.4776,27.7211 97.4776,28.7211 111.5,29.5C 111.5,29.8333 111.5,30.1667 111.5,30.5C 108.833,30.5 106.167,30.5 103.5,30.5C 92.5994,29.7334 81.5994,28.7334 70.5,27.5C 67.9407,27.8016 65.6074,27.4682 63.5,26.5 Z"/></g>
<g><path style="opacity:1" fill="#fcfdfe" d="M 69.5,26.5 C 72.6248,25.5206 75.9581,25.1872 79.5,25.5C 87.6582,26.1991 95.8249,26.8657 104,27.5C 106.929,27.5248 109.429,28.1914 111.5,29.5C 97.4776,28.7211 83.4776,27.7211 69.5,26.5 Z"/></g>
<g><path style="opacity:1" fill="#f6f9f8" d="M 79.5,25.5 C 79.5,25.1667 79.5,24.8333 79.5,24.5C 92.0021,25.2559 104.335,26.2559 116.5,27.5C 116.611,28.1174 116.944,28.6174 117.5,29C 116.584,29.2784 115.918,29.7784 115.5,30.5C 114.833,30.5 114.167,30.5 113.5,30.5C 112.833,30.5 112.167,30.5 111.5,30.5C 111.5,30.1667 111.5,29.8333 111.5,29.5C 109.429,28.1914 106.929,27.5248 104,27.5C 95.8249,26.8657 87.6582,26.1991 79.5,25.5 Z"/></g>
<g><path style="opacity:1" fill="#8fcbdc" d="M 53.5,26.5 C 53.6107,27.1174 53.944,27.6174 54.5,28C 50.3123,28.1762 46.3123,28.6762 42.5,29.5C 37.8333,29.5 33.1667,29.5 28.5,29.5C 27.8333,29.5 27.1667,29.5 26.5,29.5C 27.5,28.8333 28.5,28.1667 29.5,27.5C 37.4659,26.6351 45.4659,26.3018 53.5,26.5 Z"/></g>
<g><path style="opacity:0.849" fill="#f9fafa" d="M 116.5,27.5 C 125.349,27.1736 134.016,27.507 142.5,28.5C 139.483,28.5563 139.15,28.8897 141.5,29.5C 135.167,30.1667 128.833,30.8333 122.5,31.5C 120.139,31.3259 117.806,30.9926 115.5,30.5C 115.918,29.7784 116.584,29.2784 117.5,29C 116.944,28.6174 116.611,28.1174 116.5,27.5 Z"/></g>
<g><path style="opacity:0.808" fill="#f6f9f7" d="M 175.5,29.5 C 175.5,28.8333 175.167,28.5 174.5,28.5C 175.85,27.3501 175.684,26.6834 174,26.5C 171.273,27.0629 168.607,27.7295 166,28.5C 165.667,28.1667 165.333,27.8333 165,27.5C 163.881,28.5521 163.381,29.7188 163.5,31C 161.482,31.5046 159.482,32.0046 157.5,32.5C 157.389,31.8826 157.056,31.3826 156.5,31C 151.418,30.7814 146.418,30.2814 141.5,29.5C 139.15,28.8897 139.483,28.5563 142.5,28.5C 153.686,28.8311 164.519,27.1644 175,23.5C 178.021,25.2669 178.188,27.2669 175.5,29.5 Z"/></g>
<g><path style="opacity:1" fill="#d1f3f0" d="M 19.5,26.5 C 21.2646,27.4614 23.2646,27.7947 25.5,27.5C 21.3447,29.4022 17.0114,31.0689 12.5,32.5C 11.2721,30.9902 11.2721,29.4902 12.5,28C 14.74,27.023 17.0733,26.523 19.5,26.5 Z"/></g>
<g><path style="opacity:1" fill="#afe6ec" d="M 53.5,26.5 C 56.5,26.5 59.5,26.5 62.5,26.5C 62.8333,26.5 63.1667,26.5 63.5,26.5C 65.6074,27.4682 67.9407,27.8016 70.5,27.5C 73.3054,28.3195 76.3054,28.8195 79.5,29C 75.6437,29.1773 71.977,29.6773 68.5,30.5C 65.4824,30.2962 62.4824,29.9629 59.5,29.5C 55.5,29.5 51.5,29.5 47.5,29.5C 45.8333,29.5 44.1667,29.5 42.5,29.5C 46.3123,28.6762 50.3123,28.1762 54.5,28C 53.944,27.6174 53.6107,27.1174 53.5,26.5 Z"/></g>
<g><path style="opacity:1" fill="#c8f3f0" d="M 70.5,27.5 C 81.5994,28.7334 92.5994,29.7334 103.5,30.5C 101.473,30.3379 99.4727,30.5045 97.5,31C 100.097,31.7792 100.097,32.2792 97.5,32.5C 94.1667,32.5 90.8333,32.5 87.5,32.5C 83.0196,31.4794 78.353,30.8127 73.5,30.5C 71.8333,30.5 70.1667,30.5 68.5,30.5C 71.977,29.6773 75.6437,29.1773 79.5,29C 76.3054,28.8195 73.3054,28.3195 70.5,27.5 Z"/></g>
<g><path style="opacity:1" fill="#afd6e3" d="M 174.5,28.5 C 175.167,28.5 175.5,28.8333 175.5,29.5C 175.34,31.153 174.674,32.4863 173.5,33.5C 172.448,31.744 170.781,31.0773 168.5,31.5C 170.181,29.9925 172.181,28.9925 174.5,28.5 Z"/></g>
<g><path style="opacity:1" fill="#7ec5e9" d="M 28.5,29.5 C 33.1667,29.5 37.8333,29.5 42.5,29.5C 44.1667,29.5 45.8333,29.5 47.5,29.5C 44.3752,30.4794 41.0419,30.8128 37.5,30.5C 32.8485,30.6268 28.5152,31.6268 24.5,33.5C 24.5,34.1667 24.1667,34.5 23.5,34.5C 22.609,33.8902 21.609,33.5569 20.5,33.5C 20.1667,33.5 19.8333,33.5 19.5,33.5C 22.5,32.1667 25.5,30.8333 28.5,29.5 Z"/></g>
<g><path style="opacity:0.851" fill="#a1cad8" d="M 59.5,29.5 C 62.4824,29.9629 65.4824,30.2962 68.5,30.5C 70.1667,30.5 71.8333,30.5 73.5,30.5C 70.3752,31.4794 67.0419,31.8128 63.5,31.5C 58.8333,31.5 54.1667,31.5 49.5,31.5C 52.8333,30.8333 56.1667,30.1667 59.5,29.5 Z"/></g>
<g><path style="opacity:1" fill="#bee9e9" d="M 103.5,30.5 C 106.167,30.5 108.833,30.5 111.5,30.5C 112.167,30.5 112.833,30.5 113.5,30.5C 113.5,30.8333 113.5,31.1667 113.5,31.5C 114.789,32.6366 115.789,33.9699 116.5,35.5C 114.833,35.5 113.167,35.5 111.5,35.5C 108.615,35.8064 105.948,35.4731 103.5,34.5C 105.857,34.6633 108.19,34.4966 110.5,34C 105.981,33.8247 101.647,33.3247 97.5,32.5C 100.097,32.2792 100.097,31.7792 97.5,31C 99.4727,30.5045 101.473,30.3379 103.5,30.5 Z"/></g>
<g><path style="opacity:1" fill="#f9fefe" d="M 141.5,29.5 C 146.418,30.2814 151.418,30.7814 156.5,31C 157.056,31.3826 157.389,31.8826 157.5,32.5C 150.809,32.5458 144.143,32.2125 137.5,31.5C 132.5,31.5 127.5,31.5 122.5,31.5C 128.833,30.8333 135.167,30.1667 141.5,29.5 Z"/></g>
<g><path style="opacity:0.922" fill="#8dbcd6" d="M 47.5,29.5 C 51.5,29.5 55.5,29.5 59.5,29.5C 56.1667,30.1667 52.8333,30.8333 49.5,31.5C 46.3752,32.4794 43.0419,32.8128 39.5,32.5C 37.8008,32.6602 36.1341,32.4935 34.5,32C 35.7375,31.7679 36.7375,31.2679 37.5,30.5C 41.0419,30.8128 44.3752,30.4794 47.5,29.5 Z"/></g>
<g><path style="opacity:0.916" fill="#bed9dd" d="M 73.5,30.5 C 78.353,30.8127 83.0196,31.4794 87.5,32.5C 87.5,32.8333 87.5,33.1667 87.5,33.5C 79.3194,33.2238 71.3194,32.5571 63.5,31.5C 67.0419,31.8128 70.3752,31.4794 73.5,30.5 Z"/></g>
<g><path style="opacity:1" fill="#ddf9fb" d="M 113.5,31.5 C 113.5,31.1667 113.5,30.8333 113.5,30.5C 114.167,30.5 114.833,30.5 115.5,30.5C 117.806,30.9926 120.139,31.3259 122.5,31.5C 127.5,31.5 132.5,31.5 137.5,31.5C 137.5,31.8333 137.5,32.1667 137.5,32.5C 132.833,32.5 128.167,32.5 123.5,32.5C 122.686,38.9539 121.352,38.9539 119.5,32.5C 117.5,32.1667 115.5,31.8333 113.5,31.5 Z"/></g>
<g><path style="opacity:1" fill="#72b4d9" d="M 26.5,29.5 C 27.1667,29.5 27.8333,29.5 28.5,29.5C 25.5,30.8333 22.5,32.1667 19.5,33.5C 18.1667,34.1667 16.8333,34.8333 15.5,35.5C 15.1583,34.6618 14.4916,34.3284 13.5,34.5C 17.5344,32.2628 21.8677,30.5961 26.5,29.5 Z"/></g>
<g><path style="opacity:1" fill="#97d1f2" d="M 37.5,30.5 C 36.7375,31.2679 35.7375,31.7679 34.5,32C 36.1341,32.4935 37.8008,32.6602 39.5,32.5C 37.7354,33.4614 35.7354,33.7947 33.5,33.5C 30.6727,32.6317 27.6727,32.6317 24.5,33.5C 28.5152,31.6268 32.8485,30.6268 37.5,30.5 Z"/></g>
<g><path style="opacity:1" fill="#e8fbfe" d="M 174.5,28.5 C 172.181,28.9925 170.181,29.9925 168.5,31.5C 165.739,32.9205 162.739,33.5871 159.5,33.5C 153.833,33.5 148.167,33.5 142.5,33.5C 141.081,32.5489 139.415,32.2155 137.5,32.5C 137.5,32.1667 137.5,31.8333 137.5,31.5C 144.143,32.2125 150.809,32.5458 157.5,32.5C 159.482,32.0046 161.482,31.5046 163.5,31C 163.381,29.7188 163.881,28.5521 165,27.5C 165.333,27.8333 165.667,28.1667 166,28.5C 168.607,27.7295 171.273,27.0629 174,26.5C 175.684,26.6834 175.85,27.3501 174.5,28.5 Z"/></g>
<g><path style="opacity:0.875" fill="#b4d1d6" d="M 87.5,33.5 C 87.5,33.1667 87.5,32.8333 87.5,32.5C 90.8333,32.5 94.1667,32.5 97.5,32.5C 101.647,33.3247 105.981,33.8247 110.5,34C 108.19,34.4966 105.857,34.6633 103.5,34.5C 98.0735,34.7825 92.7401,34.4491 87.5,33.5 Z"/></g>
<g><path style="opacity:1" fill="#83b1d4" d="M 5.5,33.5 C 7.17876,33.2852 8.17876,33.9519 8.5,35.5C 7.99762,37.0847 6.99762,37.5847 5.5,37C 4.20891,35.7083 4.20891,34.5417 5.5,33.5 Z"/></g>
<g><path style="opacity:1" fill="#aedcec" d="M 25.5,27.5 C 26.5,27.5 27.5,27.5 28.5,27.5C 28.8333,27.5 29.1667,27.5 29.5,27.5C 28.5,28.1667 27.5,28.8333 26.5,29.5C 21.8677,30.5961 17.5344,32.2628 13.5,34.5C 13.1583,35.3382 12.4916,35.6716 11.5,35.5C 10.5,35.5 9.5,35.5 8.5,35.5C 8.17876,33.9519 7.17876,33.2852 5.5,33.5C 6.97632,31.2385 8.47632,31.5719 10,34.5C 10.9947,33.9341 11.828,33.2674 12.5,32.5C 17.0114,31.0689 21.3447,29.4022 25.5,27.5 Z"/></g>
<g><path style="opacity:1" fill="#90c3dd" d="M 20.5,33.5 C 21.609,33.5569 22.609,33.8902 23.5,34.5C 24.9354,35.0965 26.602,35.0965 28.5,34.5C 24.8751,36.4303 21.2084,38.4303 17.5,40.5C 16.8333,40.5 16.5,40.1667 16.5,39.5C 17.8202,37.5368 19.1535,35.5368 20.5,33.5 Z"/></g>
<g><path style="opacity:1" fill="#88b9d8" d="M 33.5,33.5 C 32.0813,34.4511 30.4147,34.7845 28.5,34.5C 26.602,35.0965 24.9354,35.0965 23.5,34.5C 24.1667,34.5 24.5,34.1667 24.5,33.5C 27.6727,32.6317 30.6727,32.6317 33.5,33.5 Z"/></g>
<g><path style="opacity:1" fill="#73aeda" d="M 133.5,33.5 C 136.5,33.5 139.5,33.5 142.5,33.5C 142.611,34.1174 142.944,34.6174 143.5,35C 141.866,35.4935 140.199,35.6602 138.5,35.5C 136.597,35.2041 134.93,34.5375 133.5,33.5 Z"/></g>
<g><path style="opacity:1" fill="#76b3df" d="M 168.5,31.5 C 170.781,31.0773 172.448,31.744 173.5,33.5C 172.5,33.5 171.5,33.5 170.5,33.5C 167.933,34.475 165.267,35.1417 162.5,35.5C 160.973,35.573 159.973,34.9063 159.5,33.5C 162.739,33.5871 165.739,32.9205 168.5,31.5 Z"/></g>
<g><path style="opacity:0.573" fill="#b9e1ec" d="M 170.5,33.5 C 171.5,33.5 172.5,33.5 173.5,33.5C 172.833,34.8333 171.833,35.8333 170.5,36.5C 170.5,36.1667 170.5,35.8333 170.5,35.5C 170.5,34.8333 170.5,34.1667 170.5,33.5 Z"/></g>
<g><path style="opacity:1" fill="#5e94d0" d="M 13.5,34.5 C 14.4916,34.3284 15.1583,34.6618 15.5,35.5C 14.5,36.8333 13.5,38.1667 12.5,39.5C 11.596,38.791 11.2627,37.791 11.5,36.5C 11.5,36.1667 11.5,35.8333 11.5,35.5C 12.4916,35.6716 13.1583,35.3382 13.5,34.5 Z"/></g>
<g><path style="opacity:1" fill="#85cae6" d="M 133.5,33.5 C 134.93,34.5375 136.597,35.2041 138.5,35.5C 138.5,35.8333 138.5,36.1667 138.5,36.5C 137.833,36.5 137.167,36.5 136.5,36.5C 134.192,36.0862 131.858,35.7529 129.5,35.5C 127.545,35.7245 125.879,36.3911 124.5,37.5C 124.5,36.1667 124.5,34.8333 124.5,33.5C 127.5,33.5 130.5,33.5 133.5,33.5 Z"/></g>
<g><path style="opacity:1" fill="#7cbddb" d="M 142.5,33.5 C 148.167,33.5 153.833,33.5 159.5,33.5C 159.973,34.9063 160.973,35.573 162.5,35.5C 162.5,35.8333 162.5,36.1667 162.5,36.5C 155.833,36.5 149.167,36.5 142.5,36.5C 141.167,36.5 139.833,36.5 138.5,36.5C 138.5,36.1667 138.5,35.8333 138.5,35.5C 140.199,35.6602 141.866,35.4935 143.5,35C 142.944,34.6174 142.611,34.1174 142.5,33.5 Z"/></g>
<g><path style="opacity:1" fill="#86ccf2" d="M 170.5,33.5 C 170.5,34.1667 170.5,34.8333 170.5,35.5C 168.035,35.767 165.701,36.4336 163.5,37.5C 163.5,36.8333 163.167,36.5 162.5,36.5C 162.5,36.1667 162.5,35.8333 162.5,35.5C 165.267,35.1417 167.933,34.475 170.5,33.5 Z"/></g>
<g><path style="opacity:0.582" fill="#e7f6f9" d="M 17.5,25.5 C 18.4916,25.3284 19.1583,25.6618 19.5,26.5C 17.0733,26.523 14.74,27.023 12.5,28C 11.2721,29.4902 11.2721,30.9902 12.5,32.5C 11.828,33.2674 10.9947,33.9341 10,34.5C 8.47632,31.5719 6.97632,31.2385 5.5,33.5C 4.20891,34.5417 4.20891,35.7083 5.5,37C 6.99762,37.5847 7.99762,37.0847 8.5,35.5C 9.5,35.5 10.5,35.5 11.5,35.5C 11.5,35.8333 11.5,36.1667 11.5,36.5C 10.0937,36.9731 9.42702,37.9731 9.5,39.5C 8.5,39.8333 7.83333,40.5 7.5,41.5C 7.16667,41.5 6.83333,41.5 6.5,41.5C 5.43236,40.5655 4.09903,40.2322 2.5,40.5C 2.5,41.5 2.5,42.5 2.5,43.5C 0.800403,32.3325 5.8004,26.3325 17.5,25.5 Z"/></g>
<g><path style="opacity:1" fill="#a3e1f9" d="M 19.5,33.5 C 19.8333,33.5 20.1667,33.5 20.5,33.5C 19.1535,35.5368 17.8202,37.5368 16.5,39.5C 15.2976,38.5946 13.9643,38.5946 12.5,39.5C 13.5,38.1667 14.5,36.8333 15.5,35.5C 16.8333,34.8333 18.1667,34.1667 19.5,33.5 Z"/></g>
<g><path style="opacity:1" fill="#80b5d6" d="M 136.5,36.5 C 133.359,37.3213 130.025,37.8213 126.5,38C 125.944,38.3826 125.611,38.8826 125.5,39.5C 123.576,39.2893 123.243,38.6226 124.5,37.5C 125.879,36.3911 127.545,35.7245 129.5,35.5C 131.858,35.7529 134.192,36.0862 136.5,36.5 Z"/></g>
<g><path style="opacity:1" fill="#a3dbf3" d="M 142.5,36.5 C 149.167,36.5 155.833,36.5 162.5,36.5C 163.167,36.5 163.5,36.8333 163.5,37.5C 162.508,37.3284 161.842,37.6618 161.5,38.5C 155.034,37.9097 148.7,37.243 142.5,36.5 Z"/></g>
<g><path style="opacity:0.224" fill="#dcf4f9" d="M 136.5,36.5 C 137.167,36.5 137.833,36.5 138.5,36.5C 139.833,36.5 141.167,36.5 142.5,36.5C 148.7,37.243 155.034,37.9097 161.5,38.5C 161.833,38.5 162.167,38.5 162.5,38.5C 162.842,39.3382 163.508,39.6716 164.5,39.5C 162.735,40.4614 160.735,40.7947 158.5,40.5C 155.282,39.0458 151.782,38.3791 148,38.5C 145.639,38.5039 143.473,38.8373 141.5,39.5C 136.198,38.2132 130.864,38.2132 125.5,39.5C 125.611,38.8826 125.944,38.3826 126.5,38C 130.025,37.8213 133.359,37.3213 136.5,36.5 Z"/></g>
<g><path style="opacity:1" fill="#79adce" d="M 170.5,35.5 C 170.5,35.8333 170.5,36.1667 170.5,36.5C 170.5,37.1667 170.167,37.5 169.5,37.5C 167.139,37.6741 164.806,38.0074 162.5,38.5C 162.167,38.5 161.833,38.5 161.5,38.5C 161.842,37.6618 162.508,37.3284 163.5,37.5C 165.701,36.4336 168.035,35.767 170.5,35.5 Z"/></g>
<g><path style="opacity:0.852" fill="#dce7e6" d="M 141.5,39.5 C 143.473,38.8373 145.639,38.5039 148,38.5C 151.782,38.3791 155.282,39.0458 158.5,40.5C 152.819,40.3651 147.152,40.0318 141.5,39.5 Z"/></g>
<g><path style="opacity:0.094" fill="#b3d1e8" d="M 169.5,37.5 C 168.22,38.9313 166.553,39.5979 164.5,39.5C 163.508,39.6716 162.842,39.3382 162.5,38.5C 164.806,38.0074 167.139,37.6741 169.5,37.5 Z"/></g>
<g><path style="opacity:1" fill="#81bbd9" d="M 11.5,36.5 C 11.2627,37.791 11.596,38.791 12.5,39.5C 12.5,40.1667 12.1667,40.5 11.5,40.5C 10.5084,40.6716 9.84171,40.3382 9.5,39.5C 9.42702,37.9731 10.0937,36.9731 11.5,36.5 Z"/></g>
<g><path style="opacity:1" fill="#a3d8e9" d="M 113.5,31.5 C 115.5,31.8333 117.5,32.1667 119.5,32.5C 121.352,38.9539 122.686,38.9539 123.5,32.5C 128.167,32.5 132.833,32.5 137.5,32.5C 139.415,32.2155 141.081,32.5489 142.5,33.5C 139.5,33.5 136.5,33.5 133.5,33.5C 130.5,33.5 127.5,33.5 124.5,33.5C 124.5,34.8333 124.5,36.1667 124.5,37.5C 123.243,38.6226 123.576,39.2893 125.5,39.5C 125.158,40.3382 124.492,40.6716 123.5,40.5C 122.167,40.8333 120.833,41.1667 119.5,41.5C 120.052,39.6693 120.052,38.0026 119.5,36.5C 118.833,37.5 118.167,38.5 117.5,39.5C 116.583,38.8728 115.583,38.5394 114.5,38.5C 115.398,37.8423 116.398,37.1757 117.5,36.5C 117.376,35.8933 117.043,35.56 116.5,35.5C 115.789,33.9699 114.789,32.6366 113.5,31.5 Z"/></g>
<g><path style="opacity:1" fill="#9ac1db" d="M 6.5,41.5 C 6.5,42.8333 5.83333,43.5 4.5,43.5C 3.83333,43.5 3.16667,43.5 2.5,43.5C 2.5,42.5 2.5,41.5 2.5,40.5C 4.09903,40.2322 5.43236,40.5655 6.5,41.5 Z"/></g>
<g><path style="opacity:1" fill="#89c6da" d="M 119.5,41.5 C 116.846,44.0179 115.179,43.3512 114.5,39.5C 114.5,39.1667 114.5,38.8333 114.5,38.5C 115.583,38.5394 116.583,38.8728 117.5,39.5C 118.167,38.5 118.833,37.5 119.5,36.5C 120.052,38.0026 120.052,39.6693 119.5,41.5 Z"/></g>
<g><path style="opacity:0.996" fill="#eff9f8" d="M 111.5,35.5 C 113.167,35.5 114.833,35.5 116.5,35.5C 117.043,35.56 117.376,35.8933 117.5,36.5C 116.398,37.1757 115.398,37.8423 114.5,38.5C 114.5,38.8333 114.5,39.1667 114.5,39.5C 113.549,40.9187 113.216,42.5853 113.5,44.5C 112.833,44.8333 112.167,45.1667 111.5,45.5C 110.167,45.5 108.833,45.5 107.5,45.5C 106.833,45.5 106.167,45.5 105.5,45.5C 107.018,43.2282 109.185,41.8949 112,41.5C 113.812,39.0793 113.646,37.0793 111.5,35.5 Z"/></g>
<g><path style="opacity:1" fill="#a6e2ea" d="M 114.5,39.5 C 115.179,43.3512 116.846,44.0179 119.5,41.5C 118.581,44.0892 116.914,46.0892 114.5,47.5C 114.737,46.209 114.404,45.209 113.5,44.5C 113.216,42.5853 113.549,40.9187 114.5,39.5 Z"/></g>
<g><path style="opacity:1" fill="#c1eff4" d="M 16.5,39.5 C 16.5,40.1667 16.8333,40.5 17.5,40.5C 17.5,41.1667 17.1667,41.5 16.5,41.5C 15.8501,41.1961 15.1835,40.8627 14.5,40.5C 13.9219,43.3687 12.9219,46.0353 11.5,48.5C 12.6119,49.2652 13.2786,50.2652 13.5,51.5C 11.4439,50.4071 10.4439,48.5738 10.5,46C 10.5811,44.0762 10.9144,42.2429 11.5,40.5C 12.1667,40.5 12.5,40.1667 12.5,39.5C 13.9643,38.5946 15.2976,38.5946 16.5,39.5 Z"/></g>
<g><path style="opacity:0.539" fill="#f0fcfd" d="M 2.5,43.5 C 3.16667,43.5 3.83333,43.5 4.5,43.5C 5.0787,46.3311 6.41203,48.6644 8.5,50.5C 9.23411,51.7079 9.56745,53.0413 9.5,54.5C 9.5,54.8333 9.5,55.1667 9.5,55.5C 6.14231,52.1208 3.80898,48.1208 2.5,43.5 Z"/></g>
<g><path style="opacity:1" fill="#c8f0f8" d="M 6.5,41.5 C 6.83333,41.5 7.16667,41.5 7.5,41.5C 7.96286,44.4824 8.29619,47.4824 8.5,50.5C 6.41203,48.6644 5.0787,46.3311 4.5,43.5C 5.83333,43.5 6.5,42.8333 6.5,41.5 Z"/></g>
<g><path style="opacity:1" fill="#8ec5e2" d="M 113.5,44.5 C 114.404,45.209 114.737,46.209 114.5,47.5C 113.167,49.5 111.833,51.5 110.5,53.5C 109.883,53.3893 109.383,53.056 109,52.5C 108.051,54.0931 106.885,55.4264 105.5,56.5C 106.706,52.4233 108.706,48.7567 111.5,45.5C 112.167,45.1667 112.833,44.8333 113.5,44.5 Z"/></g>
<g><path style="opacity:1" fill="#9bdbe2" d="M 9.5,39.5 C 9.84171,40.3382 10.5084,40.6716 11.5,40.5C 10.9144,42.2429 10.5811,44.0762 10.5,46C 10.4439,48.5738 11.4439,50.4071 13.5,51.5C 13.5,51.8333 13.5,52.1667 13.5,52.5C 11.8212,52.2852 10.8212,52.9519 10.5,54.5C 10.1667,54.5 9.83333,54.5 9.5,54.5C 9.56745,53.0413 9.23411,51.7079 8.5,50.5C 8.29619,47.4824 7.96286,44.4824 7.5,41.5C 7.83333,40.5 8.5,39.8333 9.5,39.5 Z"/></g>
<g><path style="opacity:1" fill="#8bb8d4" d="M 105.5,45.5 C 106.167,45.5 106.833,45.5 107.5,45.5C 108.326,47.5485 107.659,49.2151 105.5,50.5C 105.196,48.2043 104.196,47.871 102.5,49.5C 102.738,47.5956 103.738,46.2623 105.5,45.5 Z"/></g>
<g><path style="opacity:1" fill="#c1e9f4" d="M 107.5,45.5 C 108.833,45.5 110.167,45.5 111.5,45.5C 108.706,48.7567 106.706,52.4233 105.5,56.5C 104.71,57.4013 103.71,58.0679 102.5,58.5C 101.9,57.1001 100.9,56.1001 99.5,55.5C 99.4021,53.4471 100.069,51.7804 101.5,50.5C 102.143,56.8752 103.476,56.8752 105.5,50.5C 107.659,49.2151 108.326,47.5485 107.5,45.5 Z"/></g>
<g><path style="opacity:0.073" fill="#e2f4f3" d="M 16.5,41.5 C 14.6571,45.1869 13.9905,49.1869 14.5,53.5C 13.8333,53.5 13.5,53.1667 13.5,52.5C 13.5,52.1667 13.5,51.8333 13.5,51.5C 13.2786,50.2652 12.6119,49.2652 11.5,48.5C 12.9219,46.0353 13.9219,43.3687 14.5,40.5C 15.1835,40.8627 15.8501,41.1961 16.5,41.5 Z"/></g>
<g><path style="opacity:1" fill="#82addc" d="M 105.5,50.5 C 103.476,56.8752 102.143,56.8752 101.5,50.5C 101.5,49.8333 101.833,49.5 102.5,49.5C 104.196,47.871 105.196,48.2043 105.5,50.5 Z"/></g>
<g><path style="opacity:1" fill="#88c6dd" d="M 13.5,52.5 C 13.5,53.1667 13.8333,53.5 14.5,53.5C 16.1657,60.9218 14.8324,61.2551 10.5,54.5C 10.8212,52.9519 11.8212,52.2852 13.5,52.5 Z"/></g>
<g><path style="opacity:0.741" fill="#e4f6f6" d="M 123.5,40.5 C 113.889,50.7191 106.556,62.3857 101.5,75.5C 102.2,71.7627 103.2,68.0961 104.5,64.5C 106.738,61.0283 108.738,57.3617 110.5,53.5C 111.833,51.5 113.167,49.5 114.5,47.5C 116.914,46.0892 118.581,44.0892 119.5,41.5C 120.833,41.1667 122.167,40.8333 123.5,40.5 Z"/></g>
<g><path style="opacity:0.031" fill="#c7e4e7" d="M 14.5,53.5 C 16.4409,56.4594 18.4409,59.4594 20.5,62.5C 14.5707,63.9267 10.904,61.5934 9.5,55.5C 9.5,55.1667 9.5,54.8333 9.5,54.5C 9.83333,54.5 10.1667,54.5 10.5,54.5C 14.8324,61.2551 16.1657,60.9218 14.5,53.5 Z"/></g>
<g><path style="opacity:1" fill="#beeeeb" d="M 110.5,53.5 C 108.738,57.3617 106.738,61.0283 104.5,64.5C 104.44,63.9569 104.107,63.6236 103.5,63.5C 102.032,66.1536 100.365,68.487 98.5,70.5C 100.399,66.6983 101.733,62.6983 102.5,58.5C 103.71,58.0679 104.71,57.4013 105.5,56.5C 106.885,55.4264 108.051,54.0931 109,52.5C 109.383,53.056 109.883,53.3893 110.5,53.5 Z"/></g>
<g><path style="opacity:1" fill="#e6f8f5" d="M 99.5,55.5 C 100.9,56.1001 101.9,57.1001 102.5,58.5C 101.733,62.6983 100.399,66.6983 98.5,70.5C 97.8333,71.8333 97.1667,73.1667 96.5,74.5C 95.8333,73.5 95.1667,72.5 94.5,71.5C 94.5,70.8333 94.1667,70.5 93.5,70.5C 95.129,65.2647 97.129,60.2647 99.5,55.5 Z"/></g>
<g><path style="opacity:1" fill="#beefe5" d="M 104.5,64.5 C 103.2,68.0961 102.2,71.7627 101.5,75.5C 100.167,76.8333 98.8333,78.1667 97.5,79.5C 97.631,78.7611 97.4643,78.0944 97,77.5C 96.3333,78.8333 95.6667,80.1667 95,81.5C 94.6012,81.2716 94.4346,80.9382 94.5,80.5C 94.6036,78.2972 95.2702,76.2972 96.5,74.5C 97.1667,73.1667 97.8333,71.8333 98.5,70.5C 100.365,68.487 102.032,66.1536 103.5,63.5C 104.107,63.6236 104.44,63.9569 104.5,64.5 Z"/></g>
<g><path style="opacity:1" fill="#cbe4dc" d="M 93.5,70.5 C 94.1667,70.5 94.5,70.8333 94.5,71.5C 91.8845,77.7307 89.5512,84.064 87.5,90.5C 86.8333,92.1667 86.1667,93.8333 85.5,95.5C 85.5,94.1667 84.8333,93.5 83.5,93.5C 86.597,85.6483 89.9303,77.9817 93.5,70.5 Z"/></g>
<g><path style="opacity:1" fill="#ddf9f3" d="M 94.5,71.5 C 95.1667,72.5 95.8333,73.5 96.5,74.5C 95.2702,76.2972 94.6036,78.2972 94.5,80.5C 91.8731,84.5102 89.7065,88.8435 88,93.5C 87.5172,92.552 87.3505,91.552 87.5,90.5C 89.5512,84.064 91.8845,77.7307 94.5,71.5 Z"/></g>
<g><path style="opacity:1" fill="#cbf6ee" d="M 97.5,79.5 C 95.1692,84.8289 92.8359,90.1622 90.5,95.5C 88.7685,99.295 86.7685,102.962 84.5,106.5C 84.5861,104.323 85.2528,102.323 86.5,100.5C 85.7997,100.213 85.1331,99.8795 84.5,99.5C 85.2341,98.2921 85.5674,96.9587 85.5,95.5C 86.1667,93.8333 86.8333,92.1667 87.5,90.5C 87.3505,91.552 87.5172,92.552 88,93.5C 89.7065,88.8435 91.8731,84.5102 94.5,80.5C 94.4346,80.9382 94.6012,81.2716 95,81.5C 95.6667,80.1667 96.3333,78.8333 97,77.5C 97.4643,78.0944 97.631,78.7611 97.5,79.5 Z"/></g>
<g><path style="opacity:1" fill="#d0ebe3" d="M 101.5,75.5 C 98.2588,84.9107 94.2588,93.9107 89.5,102.5C 89.6741,100.139 90.0074,97.8056 90.5,95.5C 92.8359,90.1622 95.1692,84.8289 97.5,79.5C 98.8333,78.1667 100.167,76.8333 101.5,75.5 Z"/></g>
<g><path style="opacity:0.945" fill="#cde4e7" d="M 83.5,93.5 C 83.459,97.2364 82.1257,100.236 79.5,102.5C 80.4629,99.2558 81.7962,96.2558 83.5,93.5 Z"/></g>
<g><path style="opacity:1" fill="#a4d4db" d="M 83.5,93.5 C 84.8333,93.5 85.5,94.1667 85.5,95.5C 85.5674,96.9587 85.2341,98.2921 84.5,99.5C 82.8792,102.807 81.2125,106.14 79.5,109.5C 79.5654,109.062 79.3988,108.728 79,108.5C 78.5776,110.426 77.4109,111.426 75.5,111.5C 76.4629,108.256 77.7962,105.256 79.5,102.5C 82.1257,100.236 83.459,97.2364 83.5,93.5 Z"/></g>
<g><path style="opacity:1" fill="#c4f1f4" d="M 84.5,99.5 C 85.1331,99.8795 85.7997,100.213 86.5,100.5C 85.2528,102.323 84.5861,104.323 84.5,106.5C 82.8333,108.167 81.1667,109.833 79.5,111.5C 79.5,110.833 79.5,110.167 79.5,109.5C 81.2125,106.14 82.8792,102.807 84.5,99.5 Z"/></g>
<g><path style="opacity:0.722" fill="#d0ece8" d="M 89.5,104.5 C 85.6591,112.854 81.3257,120.854 76.5,128.5C 76.1667,128.5 75.8333,128.5 75.5,128.5C 78.0605,124.918 79.7272,120.918 80.5,116.5C 83.5191,112.437 86.5191,108.437 89.5,104.5 Z"/></g>
<g><path style="opacity:1" fill="#8ec8dd" d="M 79.5,109.5 C 79.5,110.167 79.5,110.833 79.5,111.5C 76.8472,116.135 74.1805,120.801 71.5,125.5C 71.5,125.167 71.5,124.833 71.5,124.5C 71.5,122.833 71.5,121.167 71.5,119.5C 72.3257,116.515 73.659,113.849 75.5,111.5C 77.4109,111.426 78.5776,110.426 79,108.5C 79.3988,108.728 79.5654,109.062 79.5,109.5 Z"/></g>
<g><path style="opacity:1" fill="#b9eee7" d="M 90.5,95.5 C 90.0074,97.8056 89.6741,100.139 89.5,102.5C 89.5,103.167 89.5,103.833 89.5,104.5C 86.5191,108.437 83.5191,112.437 80.5,116.5C 79.7272,120.918 78.0605,124.918 75.5,128.5C 74.407,130.349 73.0737,132.016 71.5,133.5C 73.1284,127.518 75.6284,121.852 79,116.5C 79.4935,114.866 79.6602,113.199 79.5,111.5C 81.1667,109.833 82.8333,108.167 84.5,106.5C 86.7685,102.962 88.7685,99.295 90.5,95.5 Z"/></g>
<g><path style="opacity:1" fill="#9ccbdc" d="M 71.5,119.5 C 71.5,121.167 71.5,122.833 71.5,124.5C 68.4938,129.378 65.1605,134.211 61.5,139C 60.4848,140.373 60.4848,141.54 61.5,142.5C 60.1667,144.167 58.8333,145.833 57.5,147.5C 56.391,147.557 55.391,147.89 54.5,148.5C 54.5,147.833 54.5,147.167 54.5,146.5C 56.5869,145.415 57.9202,143.749 58.5,141.5C 62.8366,134.159 67.17,126.825 71.5,119.5 Z"/></g>
<g><path style="opacity:1" fill="#a1e0f4" d="M 71.5,127.5 C 70.9778,130.253 70.1445,132.92 69,135.5C 66.724,136.762 64.8907,138.429 63.5,140.5C 65.4176,135.657 68.0843,131.323 71.5,127.5 Z"/></g>
<g><path style="opacity:1" fill="#a8e5e8" d="M 79.5,111.5 C 79.6602,113.199 79.4935,114.866 79,116.5C 75.6284,121.852 73.1284,127.518 71.5,133.5C 68.6906,139.452 64.6906,144.452 59.5,148.5C 59.1583,147.662 58.4916,147.328 57.5,147.5C 58.8333,145.833 60.1667,144.167 61.5,142.5C 61.8333,141.5 62.5,140.833 63.5,140.5C 64.8907,138.429 66.724,136.762 69,135.5C 70.1445,132.92 70.9778,130.253 71.5,127.5C 71.5,126.833 71.5,126.167 71.5,125.5C 74.1805,120.801 76.8472,116.135 79.5,111.5 Z"/></g>
<g><path style="opacity:1" fill="#78b9d3" d="M 71.5,124.5 C 71.5,124.833 71.5,125.167 71.5,125.5C 71.5,126.167 71.5,126.833 71.5,127.5C 68.0843,131.323 65.4176,135.657 63.5,140.5C 62.5,140.833 61.8333,141.5 61.5,142.5C 60.4848,141.54 60.4848,140.373 61.5,139C 65.1605,134.211 68.4938,129.378 71.5,124.5 Z"/></g>
<g><path style="opacity:0.929" fill="#bddcec" d="M 58.5,141.5 C 57.9202,143.749 56.5869,145.415 54.5,146.5C 55.0798,144.251 56.4131,142.585 58.5,141.5 Z"/></g>
<g><path style="opacity:0.859" fill="#e4f4f2" d="M 75.5,128.5 C 75.8333,128.5 76.1667,128.5 76.5,128.5C 72.1178,138.081 66.1178,146.581 58.5,154C 56.5932,155.122 54.5932,155.955 52.5,156.5C 54.8044,153.859 57.1377,151.192 59.5,148.5C 64.6906,144.452 68.6906,139.452 71.5,133.5C 73.0737,132.016 74.407,130.349 75.5,128.5 Z"/></g>
<g><path style="opacity:1" fill="#9fe6df" d="M 57.5,147.5 C 58.4916,147.328 59.1583,147.662 59.5,148.5C 57.1377,151.192 54.8044,153.859 52.5,156.5C 50.7615,157.434 49.0948,157.434 47.5,156.5C 49.1741,154.487 51.1741,152.82 53.5,151.5C 54.3857,150.675 54.719,149.675 54.5,148.5C 55.391,147.89 56.391,147.557 57.5,147.5 Z"/></g>
<g><path style="opacity:0.412" fill="#d1e9ea" d="M 54.5,146.5 C 54.5,147.167 54.5,147.833 54.5,148.5C 54.719,149.675 54.3857,150.675 53.5,151.5C 51.1741,152.82 49.1741,154.487 47.5,156.5C 49.0948,157.434 50.7615,157.434 52.5,156.5C 51.8658,157.947 50.6991,158.613 49,158.5C 47.3376,158.612 46.1709,157.946 45.5,156.5C 48.5507,153.121 51.5507,149.788 54.5,146.5 Z"/></g>
</svg>
