<?xml version="1.0" encoding="UTF-8"?>
<!DOCTYPE svg PUBLIC "-//W3C//DTD SVG 1.1//EN" "http://www.w3.org/Graphics/SVG/1.1/DTD/svg11.dtd">
<svg xmlns="http://www.w3.org/2000/svg" version="1.1" width="500px" height="500px" style="shape-rendering:geometricPrecision; text-rendering:geometricPrecision; image-rendering:optimizeQuality; fill-rule:evenodd; clip-rule:evenodd" xmlns:xlink="http://www.w3.org/1999/xlink">
<g><path style="opacity:0.988" fill="#4aa7f3" d="M 249.5,40.5 C 249.5,47.5 249.5,54.5 249.5,61.5C 245.298,61.1832 241.298,61.5166 237.5,62.5C 226.064,63.4195 214.73,65.0862 203.5,67.5C 202.5,67.5 201.5,67.5 200.5,67.5C 198.692,61.2733 197.026,54.94 195.5,48.5C 213.121,43.5465 231.121,40.8798 249.5,40.5 Z"/></g>
<g><path style="opacity:0.988" fill="#62b2f2" d="M 249.5,40.5 C 267.879,40.8798 285.879,43.5465 303.5,48.5C 301.521,55.0829 299.854,61.7496 298.5,68.5C 288.559,66.3432 278.559,64.5099 268.5,63C 258.172,62.5002 247.839,62.3335 237.5,62.5C 241.298,61.5166 245.298,61.1832 249.5,61.5C 249.5,54.5 249.5,47.5 249.5,40.5 Z"/></g>
<g><path style="opacity:0.987" fill="#62b3f3" d="M 195.5,48.5 C 197.026,54.94 198.692,61.2733 200.5,67.5C 201.5,67.5 202.5,67.5 203.5,67.5C 186.641,71.9245 170.641,78.5911 155.5,87.5C 152.67,81.1698 149.337,75.1698 145.5,69.5C 160.94,59.7913 177.607,52.7913 195.5,48.5 Z"/></g>
<g><path style="opacity:0.993" fill="#80aefc" d="M 303.5,48.5 C 321.393,52.7913 338.06,59.7913 353.5,69.5C 350.167,75.5 346.833,81.5 343.5,87.5C 329.244,79.1994 314.244,72.8661 298.5,68.5C 299.854,61.7496 301.521,55.0829 303.5,48.5 Z"/></g>
<g><path style="opacity:1" fill="#37474f" d="M 237.5,62.5 C 247.839,62.3335 258.172,62.5002 268.5,63C 278.559,64.5099 288.559,66.3432 298.5,68.5C 314.244,72.8661 329.244,79.1994 343.5,87.5C 357.392,95.9482 370.392,105.615 382.5,116.5C 393.686,129.009 403.686,142.342 412.5,156.5C 420.152,170.474 426.152,185.14 430.5,200.5C 435.376,219.176 437.376,238.176 436.5,257.5C 435.789,271.382 433.789,285.049 430.5,298.5C 426.149,313.865 420.149,328.532 412.5,342.5C 403.686,356.658 393.686,369.991 382.5,382.5C 370.392,393.385 357.392,403.052 343.5,411.5C 329.219,419.592 314.219,425.925 298.5,430.5C 285.016,433.797 271.349,435.797 257.5,436.5C 238.142,437.626 219.142,435.626 200.5,430.5C 185.12,426.14 170.454,420.14 156.5,412.5C 142.342,403.686 129.009,393.686 116.5,382.5C 105.615,370.392 95.9482,357.392 87.5,343.5C 79.4216,329.273 73.0883,314.273 68.5,298.5C 63.3123,279.18 61.3123,259.513 62.5,239.5C 63.2654,227.043 64.9321,214.71 67.5,202.5C 72.1419,186.539 78.4753,171.206 86.5,156.5C 95.3144,142.342 105.314,129.009 116.5,116.5C 128.608,105.615 141.608,95.9482 155.5,87.5C 170.641,78.5911 186.641,71.9245 203.5,67.5C 214.73,65.0862 226.064,63.4195 237.5,62.5 Z"/></g>
<g><path style="opacity:0.993" fill="#4db4ab" d="M 145.5,69.5 C 149.337,75.1698 152.67,81.1698 155.5,87.5C 141.608,95.9482 128.608,105.615 116.5,116.5C 111.5,112.167 106.833,107.5 102.5,102.5C 114.843,88.8374 129.176,77.8374 145.5,69.5 Z"/></g>
<g><path style="opacity:0.996" fill="#8a9cfd" d="M 353.5,69.5 C 369.824,77.8374 384.157,88.8374 396.5,102.5C 391.833,107.167 387.167,111.833 382.5,116.5C 370.392,105.615 357.392,95.9482 343.5,87.5C 346.833,81.5 350.167,75.5 353.5,69.5 Z"/></g>
<g><path style="opacity:0.99" fill="#67bfb7" d="M 102.5,102.5 C 106.833,107.5 111.5,112.167 116.5,116.5C 105.314,129.009 95.3144,142.342 86.5,156.5C 81.4555,152.127 75.7888,148.461 69.5,145.5C 77.8374,129.176 88.8374,114.843 102.5,102.5 Z"/></g>
<g><path style="opacity:0.985" fill="#7885c9" d="M 396.5,102.5 C 410.163,114.843 421.163,129.176 429.5,145.5C 423.663,148.918 417.996,152.584 412.5,156.5C 403.686,142.342 393.686,129.009 382.5,116.5C 387.167,111.833 391.833,107.167 396.5,102.5 Z"/></g>
<g><path style="opacity:1" fill="#7fcac4" d="M 257.5,114.5 C 271.258,122.303 278.758,134.303 280,150.5C 280.5,158.493 280.666,166.493 280.5,174.5C 280.5,175.167 280.167,175.5 279.5,175.5C 265.819,186.734 250.486,189.567 233.5,184C 228.872,182.019 224.539,179.519 220.5,176.5C 219.702,176.957 219.369,177.624 219.5,178.5C 215.54,172.593 212.04,166.26 209,159.5C 206.249,147.373 208.916,136.706 217,127.5C 219.191,126.167 221.024,124.5 222.5,122.5C 232.958,115.029 244.624,112.362 257.5,114.5 Z"/></g>
<g><path style="opacity:0.996" fill="#4fb4ac" d="M 257.5,114.5 C 263.838,116.055 269.838,118.389 275.5,121.5C 290.136,132.776 294.302,147.109 288,164.5C 286.021,168.3 283.521,171.634 280.5,174.5C 280.666,166.493 280.5,158.493 280,150.5C 278.758,134.303 271.258,122.303 257.5,114.5 Z"/></g>
<g><path style="opacity:1" fill="#29a599" d="M 222.5,122.5 C 221.024,124.5 219.191,126.167 217,127.5C 208.916,136.706 206.249,147.373 209,159.5C 212.04,166.26 215.54,172.593 219.5,178.5C 221.622,190.99 225.288,202.99 230.5,214.5C 217.28,209.279 207.613,200.279 201.5,187.5C 192.809,163.19 198.143,142.357 217.5,125C 219.078,123.906 220.745,123.072 222.5,122.5 Z"/></g>
<g><path style="opacity:0.996" fill="#7885c8" d="M 275.5,121.5 C 291.705,131.397 300.371,145.897 301.5,165C 301.22,170.52 300.72,176.02 300,181.5C 299.768,182.737 299.268,183.737 298.5,184.5C 292.518,198.417 282.518,208.417 268.5,214.5C 271.225,207.162 274.059,199.829 277,192.5C 278.347,186.905 279.18,181.238 279.5,175.5C 280.167,175.5 280.5,175.167 280.5,174.5C 283.521,171.634 286.021,168.3 288,164.5C 294.302,147.109 290.136,132.776 275.5,121.5 Z"/></g>
<g><path style="opacity:0.984" fill="#7fc582" d="M 69.5,145.5 C 75.7888,148.461 81.4555,152.127 86.5,156.5C 78.4753,171.206 72.1419,186.539 67.5,202.5C 61.576,199.385 55.2427,197.052 48.5,195.5C 52.7913,177.607 59.7913,160.94 69.5,145.5 Z"/></g>
<g><path style="opacity:0.982" fill="#9373cb" d="M 429.5,145.5 C 439.209,160.94 446.209,177.607 450.5,195.5C 443.933,197.475 437.267,199.142 430.5,200.5C 426.152,185.14 420.152,170.474 412.5,156.5C 417.996,152.584 423.663,148.918 429.5,145.5 Z"/></g>
<g><path style="opacity:0.996" fill="#80b0fd" d="M 279.5,175.5 C 279.18,181.238 278.347,186.905 277,192.5C 274.059,199.829 271.225,207.162 268.5,214.5C 268.5,215.167 268.167,215.5 267.5,215.5C 254.966,219.757 242.632,219.424 230.5,214.5C 225.288,202.99 221.622,190.99 219.5,178.5C 219.369,177.624 219.702,176.957 220.5,176.5C 224.539,179.519 228.872,182.019 233.5,184C 250.486,189.567 265.819,186.734 279.5,175.5 Z"/></g>
<g><path style="opacity:0.98" fill="#9aca64" d="M 48.5,195.5 C 55.2427,197.052 61.576,199.385 67.5,202.5C 64.9321,214.71 63.2654,227.043 62.5,239.5C 61.5206,242.625 61.1872,245.958 61.5,249.5C 54.5,249.5 47.5,249.5 40.5,249.5C 40.8798,231.121 43.5465,213.121 48.5,195.5 Z"/></g>
<g><path style="opacity:0.996" fill="#7dc384" d="M 201.5,187.5 C 207.613,200.279 217.28,209.279 230.5,214.5C 235.835,226.515 242.168,237.848 249.5,248.5C 249.5,248.833 249.5,249.167 249.5,249.5C 248.448,249.649 247.448,249.483 246.5,249C 232.088,236.601 219.921,222.434 210,206.5C 206.6,200.371 203.766,194.037 201.5,187.5 Z"/></g>
<g><path style="opacity:1" fill="#9aa4d6" d="M 298.5,184.5 C 294.029,198.441 287.196,211.108 278,222.5C 269.864,231.637 261.364,240.47 252.5,249C 251.552,249.483 250.552,249.649 249.5,249.5C 249.5,249.167 249.5,248.833 249.5,248.5C 256.781,238.277 262.781,227.277 267.5,215.5C 268.167,215.5 268.5,215.167 268.5,214.5C 282.518,208.417 292.518,198.417 298.5,184.5 Z"/></g>
<g><path style="opacity:0.981" fill="#ec608f" d="M 450.5,195.5 C 455.454,213.121 458.12,231.121 458.5,249.5C 451.5,249.5 444.5,249.5 437.5,249.5C 437.806,252.385 437.473,255.052 436.5,257.5C 437.376,238.176 435.376,219.176 430.5,200.5C 437.267,199.142 443.933,197.475 450.5,195.5 Z"/></g>
<g><path style="opacity:1" fill="#8ec8f7" d="M 230.5,214.5 C 242.632,219.424 254.966,219.757 267.5,215.5C 262.781,227.277 256.781,238.277 249.5,248.5C 242.168,237.848 235.835,226.515 230.5,214.5 Z"/></g>
<g><path style="opacity:0.982" fill="#abd27f" d="M 62.5,239.5 C 61.3123,259.513 63.3123,279.18 68.5,298.5C 61.7514,299.915 55.0848,301.582 48.5,303.5C 43.5465,285.879 40.8798,267.879 40.5,249.5C 47.5,249.5 54.5,249.5 61.5,249.5C 61.1872,245.958 61.5206,242.625 62.5,239.5 Z"/></g>
<g><path style="opacity:1" fill="#e5ec9a" d="M 186.5,249.5 C 187.952,250.302 189.618,250.802 191.5,251C 189.794,255.325 188.794,259.825 188.5,264.5C 178.833,265.583 169.5,267.917 160.5,271.5C 161.048,263.857 163.381,256.857 167.5,250.5C 173.645,249.51 179.978,249.177 186.5,249.5 Z"/></g>
<g><path style="opacity:1" fill="#fc887d" d="M 331.5,250.5 C 335.619,256.857 337.952,263.857 338.5,271.5C 329.407,268.227 320.074,265.893 310.5,264.5C 310.5,264.167 310.5,263.833 310.5,263.5C 310.282,258.962 309.282,254.629 307.5,250.5C 315.5,249.167 323.5,249.167 331.5,250.5 Z"/></g>
<g><path style="opacity:0.996" fill="#ec514f" d="M 458.5,249.5 C 458.12,267.879 455.454,285.879 450.5,303.5C 443.915,301.582 437.249,299.915 430.5,298.5C 433.789,285.049 435.789,271.382 436.5,257.5C 437.473,255.052 437.806,252.385 437.5,249.5C 444.5,249.5 451.5,249.5 458.5,249.5 Z"/></g>
<g><path style="opacity:1" fill="#dee788" d="M 167.5,250.5 C 163.381,256.857 161.048,263.857 160.5,271.5C 160.672,272.492 160.338,273.158 159.5,273.5C 159.631,272.761 159.464,272.094 159,271.5C 144.275,278.238 131.941,287.905 122,300.5C 117.711,307.356 116.545,314.69 118.5,322.5C 109.16,296.35 115.827,275.183 138.5,259C 147.406,253.524 157.072,250.691 167.5,250.5 Z"/></g>
<g><path style="opacity:1" fill="#ebefbf" d="M 186.5,249.5 C 203.541,251.174 220.207,254.674 236.5,260C 237.056,260.383 237.389,260.883 237.5,261.5C 221.053,261.093 204.72,262.093 188.5,264.5C 188.794,259.825 189.794,255.325 191.5,251C 189.618,250.802 187.952,250.302 186.5,249.5 Z"/></g>
<g><path style="opacity:1" fill="#f9c8cd" d="M 307.5,250.5 C 309.282,254.629 310.282,258.962 310.5,263.5C 294.207,261.345 277.874,260.678 261.5,261.5C 262.058,260.21 263.058,259.377 264.5,259C 278.46,254.177 292.794,251.344 307.5,250.5 Z"/></g>
<g><path style="opacity:1" fill="#ef625f" d="M 331.5,250.5 C 359.064,252.566 376.564,266.899 384,293.5C 384.667,298.833 384.667,304.167 384,309.5C 383.943,312.851 383.109,315.851 381.5,318.5C 381.545,310.266 379.045,302.932 374,296.5C 364.172,285.35 352.338,277.35 338.5,272.5C 338.5,272.167 338.5,271.833 338.5,271.5C 337.952,263.857 335.619,256.857 331.5,250.5 Z"/></g>
<g><path style="opacity:1" fill="#fdcaba" d="M 310.5,263.5 C 310.5,263.833 310.5,264.167 310.5,264.5C 310.981,282.221 303.314,294.888 287.5,302.5C 277.227,289.885 268.56,276.218 261.5,261.5C 277.874,260.678 294.207,261.345 310.5,263.5 Z"/></g>
<g><path style="opacity:1" fill="#fdf7c2" d="M 237.5,261.5 C 230.237,276.374 221.237,290.041 210.5,302.5C 195.965,294.108 188.632,281.442 188.5,264.5C 204.72,262.093 221.053,261.093 237.5,261.5 Z"/></g>
<g><path style="opacity:1" fill="#fade80" d="M 237.5,261.5 C 236.488,277.564 232.155,292.897 224.5,307.5C 219.939,305.859 215.272,304.526 210.5,303.5C 210.5,303.167 210.5,302.833 210.5,302.5C 221.237,290.041 230.237,276.374 237.5,261.5 Z"/></g>
<g><path style="opacity:1" fill="#faa88e" d="M 261.5,261.5 C 268.56,276.218 277.227,289.885 287.5,302.5C 283.333,304.624 279,306.291 274.5,307.5C 267.643,293.765 262.643,279.265 259.5,264C 259.639,262.699 260.305,261.866 261.5,261.5 Z"/></g>
<g><path style="opacity:1" fill="#fdf39c" d="M 188.5,264.5 C 188.632,281.442 195.965,294.108 210.5,302.5C 210.5,302.833 210.5,303.167 210.5,303.5C 204.465,310.536 197.798,316.869 190.5,322.5C 169.834,312.859 159.501,296.526 159.5,273.5C 160.338,273.158 160.672,272.492 160.5,271.5C 169.5,267.917 178.833,265.583 188.5,264.5 Z"/></g>
<g><path style="opacity:1" fill="#fd845f" d="M 310.5,264.5 C 320.074,265.893 329.407,268.227 338.5,271.5C 338.5,271.833 338.5,272.167 338.5,272.5C 339.636,295.575 329.97,312.241 309.5,322.5C 302.108,325.93 294.441,327.93 286.5,328.5C 281.239,322.323 277.239,315.323 274.5,307.5C 279,306.291 283.333,304.624 287.5,302.5C 303.314,294.888 310.981,282.221 310.5,264.5 Z"/></g>
<g><path style="opacity:1" fill="#dbe675" d="M 159.5,273.5 C 159.501,296.526 169.834,312.859 190.5,322.5C 190.5,322.833 190.5,323.167 190.5,323.5C 174.877,335.541 157.21,341.041 137.5,340C 133.574,338.973 129.907,337.473 126.5,335.5C 123.048,331.701 120.382,327.368 118.5,322.5C 116.545,314.69 117.711,307.356 122,300.5C 131.941,287.905 144.275,278.238 159,271.5C 159.464,272.094 159.631,272.761 159.5,273.5 Z"/></g>
<g><path style="opacity:0.996" fill="#fd5252" d="M 338.5,272.5 C 352.338,277.35 364.172,285.35 374,296.5C 379.045,302.932 381.545,310.266 381.5,318.5C 379.898,326.085 376.231,332.419 370.5,337.5C 356.224,342.043 342.224,341.209 328.5,335C 322.178,332.174 316.178,328.841 310.5,325C 309.748,324.329 309.414,323.496 309.5,322.5C 329.97,312.241 339.636,295.575 338.5,272.5 Z"/></g>
<g><path style="opacity:0.983" fill="#dae574" d="M 68.5,298.5 C 73.0883,314.273 79.4216,329.273 87.5,343.5C 81.5,346.833 75.5,350.167 69.5,353.5C 59.7913,338.06 52.7913,321.393 48.5,303.5C 55.0848,301.582 61.7514,299.915 68.5,298.5 Z"/></g>
<g><path style="opacity:0.988" fill="#f24236" d="M 430.5,298.5 C 437.249,299.915 443.915,301.582 450.5,303.5C 446.209,321.393 439.209,338.06 429.5,353.5C 423.541,350.193 417.875,346.527 412.5,342.5C 420.149,328.532 426.149,313.865 430.5,298.5 Z"/></g>
<g><path style="opacity:0.996" fill="#fbd541" d="M 210.5,303.5 C 215.272,304.526 219.939,305.859 224.5,307.5C 221.685,314.958 217.685,321.625 212.5,327.5C 204.788,328.07 197.455,326.737 190.5,323.5C 190.5,323.167 190.5,322.833 190.5,322.5C 197.798,316.869 204.465,310.536 210.5,303.5 Z"/></g>
<g><path style="opacity:1" fill="#c3cc47" d="M 190.5,323.5 C 197.455,326.737 204.788,328.07 212.5,327.5C 196.231,351.108 174.231,358.608 146.5,350C 138.532,346.851 131.865,342.018 126.5,335.5C 129.907,337.473 133.574,338.973 137.5,340C 157.21,341.041 174.877,335.541 190.5,323.5 Z"/></g>
<g><path style="opacity:0.996" fill="#fb6e43" d="M 309.5,322.5 C 309.414,323.496 309.748,324.329 310.5,325C 316.178,328.841 322.178,332.174 328.5,335C 342.224,341.209 356.224,342.043 370.5,337.5C 357.468,350.185 341.802,355.351 323.5,353C 308.079,349.398 295.746,341.231 286.5,328.5C 294.441,327.93 302.108,325.93 309.5,322.5 Z"/></g>
<g><path style="opacity:0.984" fill="#fcee74" d="M 87.5,343.5 C 95.9482,357.392 105.615,370.392 116.5,382.5C 112.167,387.5 107.5,392.167 102.5,396.5C 88.8374,384.157 77.8374,369.824 69.5,353.5C 75.5,350.167 81.5,346.833 87.5,343.5 Z"/></g>
<g><path style="opacity:0.996" fill="#fc5151" d="M 412.5,342.5 C 417.875,346.527 423.541,350.193 429.5,353.5C 421.163,369.824 410.163,384.157 396.5,396.5C 391.5,392.167 386.833,387.5 382.5,382.5C 393.686,369.991 403.686,356.658 412.5,342.5 Z"/></g>
<g><path style="opacity:0.996" fill="#fcd43f" d="M 116.5,382.5 C 129.009,393.686 142.342,403.686 156.5,412.5C 152.473,417.875 148.807,423.541 145.5,429.5C 129.176,421.163 114.843,410.163 102.5,396.5C 107.5,392.167 112.167,387.5 116.5,382.5 Z"/></g>
<g><path style="opacity:0.984" fill="#fd6e42" d="M 382.5,382.5 C 386.833,387.5 391.5,392.167 396.5,396.5C 384.157,410.163 369.824,421.163 353.5,429.5C 350.167,423.5 346.833,417.5 343.5,411.5C 357.392,403.052 370.392,393.385 382.5,382.5 Z"/></g>
<g><path style="opacity:0.988" fill="#fdc828" d="M 156.5,412.5 C 170.454,420.14 185.12,426.14 200.5,430.5C 198.834,437.166 197.167,443.833 195.5,450.5C 177.607,446.209 160.94,439.209 145.5,429.5C 148.807,423.541 152.473,417.875 156.5,412.5 Z"/></g>
<g><path style="opacity:0.982" fill="#f88a01" d="M 343.5,411.5 C 346.833,417.5 350.167,423.5 353.5,429.5C 338.06,439.209 321.393,446.209 303.5,450.5C 301.58,443.899 299.913,437.232 298.5,430.5C 314.219,425.925 329.219,419.592 343.5,411.5 Z"/></g>
<g><path style="opacity:0.983" fill="#fbb44b" d="M 200.5,430.5 C 219.142,435.626 238.142,437.626 257.5,436.5C 255.052,437.473 252.385,437.806 249.5,437.5C 249.5,444.5 249.5,451.5 249.5,458.5C 231.121,458.12 213.121,455.454 195.5,450.5C 197.167,443.833 198.834,437.166 200.5,430.5 Z"/></g>
<g><path style="opacity:0.996" fill="#fca526" d="M 298.5,430.5 C 299.913,437.232 301.58,443.899 303.5,450.5C 285.879,455.454 267.879,458.12 249.5,458.5C 249.5,451.5 249.5,444.5 249.5,437.5C 252.385,437.806 255.052,437.473 257.5,436.5C 271.349,435.797 285.016,433.797 298.5,430.5 Z"/></g>
</svg>
