<?xml version="1.0" encoding="UTF-8"?>
<!DOCTYPE svg PUBLIC "-//W3C//DTD SVG 1.1//EN" "http://www.w3.org/Graphics/SVG/1.1/DTD/svg11.dtd">
<svg xmlns="http://www.w3.org/2000/svg" version="1.1" width="2000px" height="2000px" style="shape-rendering:geometricPrecision; text-rendering:geometricPrecision; image-rendering:optimizeQuality; fill-rule:evenodd; clip-rule:evenodd" xmlns:xlink="http://www.w3.org/1999/xlink">
<g><path style="opacity:0.992" fill="#370700" d="M 1051.5,602.5 C 1049.28,614.381 1046.28,626.047 1042.5,637.5C 854.5,637.5 666.5,637.5 478.5,637.5C 478.5,702.167 478.5,766.833 478.5,831.5C 547.833,831.5 617.167,831.5 686.5,831.5C 695.923,846.006 704.59,861.006 712.5,876.5C 711.501,927.997 711.168,979.664 711.5,1031.5C 694.461,1039.01 677.127,1046.01 659.5,1052.5C 659.5,1046.5 659.5,1040.5 659.5,1034.5C 659.5,1021.17 659.5,1007.83 659.5,994.5C 659.5,957.167 659.5,919.833 659.5,882.5C 637.167,882.5 614.833,882.5 592.5,882.5C 586.167,882.5 579.833,882.5 573.5,882.5C 559.833,882.5 546.167,882.5 532.5,882.5C 518.5,882.5 504.5,882.5 490.5,882.5C 475.167,882.5 459.833,882.5 444.5,882.5C 438.833,882.5 433.167,882.5 427.5,882.5C 427.5,783.833 427.5,685.167 427.5,586.5C 618.334,586.833 809.001,586.5 999.5,585.5C 1000.5,461.334 1000.83,337.001 1000.5,212.5C 912.167,212.5 823.833,212.5 735.5,212.5C 707.833,212.5 680.167,212.5 652.5,212.5C 632.833,212.5 613.167,212.5 593.5,212.5C 582.5,212.5 571.5,212.5 560.5,212.5C 553.167,212.5 545.833,212.5 538.5,212.5C 519.833,212.5 501.167,212.5 482.5,212.5C 467.5,212.5 452.5,212.5 437.5,212.5C 421.833,212.5 406.167,212.5 390.5,212.5C 376.5,212.5 362.5,212.5 348.5,212.5C 330.833,212.5 313.167,212.5 295.5,212.5C 246.833,212.5 198.167,212.5 149.5,212.5C 148.5,687 148.167,1161.67 148.5,1636.5C 156.167,1636.5 163.833,1636.5 171.5,1636.5C 191.167,1636.5 210.833,1636.5 230.5,1636.5C 251.833,1636.5 273.167,1636.5 294.5,1636.5C 329.167,1636.5 363.833,1636.5 398.5,1636.5C 407.833,1636.5 417.167,1636.5 426.5,1636.5C 427.5,1444.33 427.833,1252 427.5,1059.5C 498.5,1059.5 569.5,1059.5 640.5,1059.5C 603.012,1074.67 565.346,1089.67 527.5,1104.5C 526.831,1106.63 526.165,1108.63 525.5,1110.5C 509.833,1110.5 494.167,1110.5 478.5,1110.5C 478.5,1302.83 478.5,1495.17 478.5,1687.5C 351.5,1687.5 224.5,1687.5 97.5,1687.5C 97.5,1178.5 97.5,669.5 97.5,160.5C 415.499,161.265 733.499,161.598 1051.5,161.5C 1051.5,308.5 1051.5,455.5 1051.5,602.5 Z"/></g>
<g><path style="opacity:1" fill="#fb2202" d="M 149.5,212.5 C 149.5,375.5 149.5,538.5 149.5,701.5C 149.333,782.167 149.5,862.834 150,943.5C 191.068,692.883 257.235,449.216 348.5,212.5C 362.5,212.5 376.5,212.5 390.5,212.5C 260.067,538.243 182.234,876.243 157,1226.5C 149.631,1339.98 151.298,1453.31 162,1566.5C 164.514,1589.94 167.68,1613.28 171.5,1636.5C 163.833,1636.5 156.167,1636.5 148.5,1636.5C 148.167,1161.67 148.5,687 149.5,212.5 Z"/></g>
<g><path style="opacity:1" fill="#ff1c01" d="M 295.5,212.5 C 313.167,212.5 330.833,212.5 348.5,212.5C 257.235,449.216 191.068,692.883 150,943.5C 149.5,862.834 149.333,782.167 149.5,701.5C 188.443,535.664 237.11,372.664 295.5,212.5 Z"/></g>
<g><path style="opacity:1" fill="#ff1400" d="M 149.5,212.5 C 198.167,212.5 246.833,212.5 295.5,212.5C 237.11,372.664 188.443,535.664 149.5,701.5C 149.5,538.5 149.5,375.5 149.5,212.5 Z"/></g>
<g><path style="opacity:1" fill="#ff2803" d="M 390.5,212.5 C 406.167,212.5 421.833,212.5 437.5,212.5C 309.174,515.14 231.674,830.473 205,1158.5C 195.754,1269.9 196.421,1381.24 207,1492.5C 211.916,1540.99 219.749,1588.99 230.5,1636.5C 210.833,1636.5 191.167,1636.5 171.5,1636.5C 167.68,1613.28 164.514,1589.94 162,1566.5C 151.298,1453.31 149.631,1339.98 157,1226.5C 182.234,876.243 260.067,538.243 390.5,212.5 Z"/></g>
<g><path style="opacity:1" fill="#ff2e04" d="M 437.5,212.5 C 452.5,212.5 467.5,212.5 482.5,212.5C 387.333,423.457 319.833,643.124 280,871.5C 256.051,1004.1 243.551,1137.77 242.5,1272.5C 241.896,1351.71 248.062,1430.37 261,1508.5C 268.734,1552.1 279.9,1594.77 294.5,1636.5C 273.167,1636.5 251.833,1636.5 230.5,1636.5C 219.749,1588.99 211.916,1540.99 207,1492.5C 196.421,1381.24 195.754,1269.9 205,1158.5C 231.674,830.473 309.174,515.14 437.5,212.5 Z"/></g>
<g><path style="opacity:1" fill="#ff3405" d="M 482.5,212.5 C 501.167,212.5 519.833,212.5 538.5,212.5C 458.84,372.3 398.674,539.3 358,713.5C 325.638,847.702 305.304,983.702 297,1121.5C 291.041,1214.85 294.374,1307.85 307,1400.5C 314.945,1460.29 331.279,1517.62 356,1572.5C 367.447,1595.75 381.613,1617.09 398.5,1636.5C 363.833,1636.5 329.167,1636.5 294.5,1636.5C 279.9,1594.77 268.734,1552.1 261,1508.5C 248.062,1430.37 241.896,1351.71 242.5,1272.5C 243.551,1137.77 256.051,1004.1 280,871.5C 319.833,643.124 387.333,423.457 482.5,212.5 Z"/></g>
<g><path style="opacity:1" fill="#ff3905" d="M 538.5,212.5 C 545.833,212.5 553.167,212.5 560.5,212.5C 494.206,338.193 441.706,469.526 403,606.5C 353.785,775.788 324.452,948.455 315,1124.5C 310.068,1216.06 315.068,1307.06 330,1397.5C 338.072,1443.13 351.405,1487.13 370,1529.5C 383.278,1559.6 402.111,1585.6 426.5,1607.5C 426.5,1617.17 426.5,1626.83 426.5,1636.5C 417.167,1636.5 407.833,1636.5 398.5,1636.5C 381.613,1617.09 367.447,1595.75 356,1572.5C 331.279,1517.62 314.945,1460.29 307,1400.5C 294.374,1307.85 291.041,1214.85 297,1121.5C 305.304,983.702 325.638,847.702 358,713.5C 398.674,539.3 458.84,372.3 538.5,212.5 Z"/></g>
<g><path style="opacity:1" fill="#ff3c06" d="M 560.5,212.5 C 571.5,212.5 582.5,212.5 593.5,212.5C 525.937,330.49 472.937,454.823 434.5,585.5C 431.833,585.5 429.167,585.5 426.5,585.5C 426.5,594.167 426.5,602.833 426.5,611.5C 372.458,791.591 343.792,975.758 340.5,1164C 339.87,1240.07 347.703,1315.24 364,1389.5C 373.467,1430.58 388.801,1469.25 410,1505.5C 415.277,1513.08 420.777,1520.41 426.5,1527.5C 426.5,1554.17 426.5,1580.83 426.5,1607.5C 402.111,1585.6 383.278,1559.6 370,1529.5C 351.405,1487.13 338.072,1443.13 330,1397.5C 315.068,1307.06 310.068,1216.06 315,1124.5C 324.452,948.455 353.785,775.788 403,606.5C 441.706,469.526 494.206,338.193 560.5,212.5 Z"/></g>
<g><path style="opacity:1" fill="#ff4107" d="M 593.5,212.5 C 613.167,212.5 632.833,212.5 652.5,212.5C 613.713,266.358 580.213,323.691 552,384.5C 521.607,449.844 495.441,516.844 473.5,585.5C 460.5,585.5 447.5,585.5 434.5,585.5C 472.937,454.823 525.937,330.49 593.5,212.5 Z"/></g>
<g><path style="opacity:1" fill="#fe4708" d="M 652.5,212.5 C 680.167,212.5 707.833,212.5 735.5,212.5C 737.948,213.473 740.615,213.806 743.5,213.5C 707.779,239.721 677.279,271.054 652,307.5C 606.617,373.919 569.284,444.919 540,520.5C 531.667,541.999 523.834,563.666 516.5,585.5C 502.167,585.5 487.833,585.5 473.5,585.5C 495.441,516.844 521.607,449.844 552,384.5C 580.213,323.691 613.713,266.358 652.5,212.5 Z"/></g>
<g><path style="opacity:1" fill="#ff4d09" d="M 743.5,213.5 C 785.833,213.5 828.167,213.5 870.5,213.5C 886.212,229.898 898.712,248.564 908,269.5C 925.277,312.541 935.943,357.207 940,403.5C 945.833,464.166 946,524.833 940.5,585.5C 924.167,585.5 907.833,585.5 891.5,585.5C 894.854,529.607 890.688,474.273 879,419.5C 873.189,393.887 863.522,369.887 850,347.5C 822.336,307.709 786.836,298.876 743.5,321C 724.077,332.649 706.577,346.816 691,363.5C 661.369,397.481 636.036,434.481 615,474.5C 596.068,510.481 579.568,547.481 565.5,585.5C 549.167,585.5 532.833,585.5 516.5,585.5C 523.834,563.666 531.667,541.999 540,520.5C 569.284,444.919 606.617,373.919 652,307.5C 677.279,271.054 707.779,239.721 743.5,213.5 Z"/></g>
<g><path style="opacity:1" fill="#ff4708" d="M 870.5,213.5 C 900.833,213.5 931.167,213.5 961.5,213.5C 977.253,267.018 986.42,321.685 989,377.5C 992.281,446.976 990.448,516.309 983.5,585.5C 969.167,585.5 954.833,585.5 940.5,585.5C 946,524.833 945.833,464.166 940,403.5C 935.943,357.207 925.277,312.541 908,269.5C 898.712,248.564 886.212,229.898 870.5,213.5 Z"/></g>
<g><path style="opacity:1" fill="#ff4307" d="M 961.5,213.5 C 974.167,213.5 986.833,213.5 999.5,213.5C 999.5,337.5 999.5,461.5 999.5,585.5C 994.167,585.5 988.833,585.5 983.5,585.5C 990.448,516.309 992.281,446.976 989,377.5C 986.42,321.685 977.253,267.018 961.5,213.5 Z"/></g>
<g><path style="opacity:1" fill="#c83306" d="M 735.5,212.5 C 823.833,212.5 912.167,212.5 1000.5,212.5C 1000.83,337.001 1000.5,461.334 999.5,585.5C 999.5,461.5 999.5,337.5 999.5,213.5C 986.833,213.5 974.167,213.5 961.5,213.5C 931.167,213.5 900.833,213.5 870.5,213.5C 828.167,213.5 785.833,213.5 743.5,213.5C 740.615,213.806 737.948,213.473 735.5,212.5 Z"/></g>
<g><path style="opacity:1" fill="#ff540a" d="M 891.5,585.5 C 876.167,585.5 860.833,585.5 845.5,585.5C 845.771,544.124 838.605,504.124 824,465.5C 817.782,449.872 808.282,436.705 795.5,426C 780.778,415.769 764.778,413.102 747.5,418C 732.631,423.098 719.297,430.765 707.5,441C 676.607,470.641 651.44,504.474 632,542.5C 624.61,556.612 617.776,570.946 611.5,585.5C 596.167,585.5 580.833,585.5 565.5,585.5C 579.568,547.481 596.068,510.481 615,474.5C 636.036,434.481 661.369,397.481 691,363.5C 706.577,346.816 724.077,332.649 743.5,321C 786.836,298.876 822.336,307.709 850,347.5C 863.522,369.887 873.189,393.887 879,419.5C 890.688,474.273 894.854,529.607 891.5,585.5 Z"/></g>
<g><path style="opacity:1" fill="#ff5a0b" d="M 845.5,585.5 C 829.167,585.5 812.833,585.5 796.5,585.5C 793.19,566.221 786.023,548.554 775,532.5C 761.212,515.898 744.379,511.732 724.5,520C 716.997,523.582 709.997,527.915 703.5,533C 686.307,548.34 671.974,565.84 660.5,585.5C 644.167,585.5 627.833,585.5 611.5,585.5C 617.776,570.946 624.61,556.612 632,542.5C 651.44,504.474 676.607,470.641 707.5,441C 719.297,430.765 732.631,423.098 747.5,418C 764.778,413.102 780.778,415.769 795.5,426C 808.282,436.705 817.782,449.872 824,465.5C 838.605,504.124 845.771,544.124 845.5,585.5 Z"/></g>
<g><path style="opacity:0.992" fill="#000137" d="M 525.5,1110.5 C 526.165,1108.63 526.831,1106.63 527.5,1104.5C 565.346,1089.67 603.012,1074.67 640.5,1059.5C 647.057,1057.76 653.391,1055.43 659.5,1052.5C 677.127,1046.01 694.461,1039.01 711.5,1031.5C 720.221,1028.37 728.888,1025.04 737.5,1021.5C 745.226,1001.32 752.559,980.99 759.5,960.5C 744.345,932.187 728.678,904.187 712.5,876.5C 704.59,861.006 695.923,846.006 686.5,831.5C 674.345,810.527 662.178,789.527 650,768.5C 648.115,766.086 647.448,763.419 648,760.5C 684.167,720.333 720.333,680.167 756.5,640C 825.957,669.942 895.457,700.109 965,730.5C 985.168,721.082 1005.17,711.415 1025,701.5C 1030.84,680.148 1036.67,658.815 1042.5,637.5C 1046.28,626.047 1049.28,614.381 1051.5,602.5C 1062.63,562.989 1073.63,523.323 1084.5,483.5C 1139.03,479.867 1193.53,476.534 1248,473.5C 1276.72,544.147 1304.55,615.147 1331.5,686.5C 1351.65,692.828 1371.65,699.662 1391.5,707C 1392.83,707.667 1394.17,707.667 1395.5,707C 1460.67,669.247 1526,631.747 1591.5,594.5C 1631.83,630.667 1672.17,666.833 1712.5,703C 1713.55,704.388 1713.72,705.888 1713,707.5C 1682.96,776.407 1652.8,845.24 1622.5,914C 1632.17,933.667 1641.83,953.333 1651.5,973C 1724.72,992.762 1797.88,1012.6 1871,1032.5C 1874.2,1087.52 1876.7,1142.52 1878.5,1197.5C 1807.93,1225.04 1737.43,1252.7 1667,1280.5C 1660.03,1301.09 1652.86,1321.59 1645.5,1342C 1683.17,1407.68 1720.84,1473.35 1758.5,1539C 1757.68,1540.49 1756.85,1541.99 1756,1543.5C 1720.23,1583.36 1684.23,1623.02 1648,1662.5C 1578.47,1631 1508.64,1600.5 1438.5,1571C 1419.5,1580.17 1400.5,1589.33 1381.5,1598.5C 1380.81,1599.03 1380.31,1599.69 1380,1600.5C 1360.65,1672.88 1341.15,1745.22 1321.5,1817.5C 1266.27,1821.87 1210.93,1825.2 1155.5,1827.5C 1128.44,1757.16 1101.27,1686.83 1074,1616.5C 1053.3,1608.54 1032.47,1600.88 1011.5,1593.5C 946.004,1630.75 880.67,1668.25 815.5,1706C 813.721,1705.96 812.055,1705.29 810.5,1704C 770.413,1668.29 730.747,1632.12 691.5,1595.5C 722.111,1526.61 752.444,1457.61 782.5,1388.5C 773.431,1368.8 764.265,1349.13 755,1329.5C 681.656,1308.96 608.156,1288.96 534.5,1269.5C 532.085,1216.45 529.085,1163.45 525.5,1110.5 Z M 1203.5,944.5 C 1220.26,945.87 1236.92,948.036 1253.5,951C 1265.09,955.197 1276.76,959.197 1288.5,963C 1300.83,970 1313.17,977 1325.5,984C 1336,993.833 1346.5,1003.67 1357,1013.5C 1402.28,1068.28 1417.61,1130.62 1403,1200.5C 1398.67,1212.83 1394.33,1225.17 1390,1237.5C 1357.13,1301.9 1304.96,1341.07 1233.5,1355C 1220.82,1355.72 1208.16,1356.56 1195.5,1357.5C 1182.49,1355.71 1169.49,1353.88 1156.5,1352C 1143.36,1348.07 1130.36,1343.73 1117.5,1339C 1105.5,1332 1093.5,1325 1081.5,1318C 1070.72,1308.85 1060.22,1299.35 1050,1289.5C 1042,1278.83 1034,1268.17 1026,1257.5C 991.69,1194.9 988.024,1130.57 1015,1064.5C 1022,1052.5 1029,1040.5 1036,1028.5C 1045.46,1017.37 1055.3,1006.53 1065.5,996C 1075.5,988.667 1085.5,981.333 1095.5,974C 1107.29,968.606 1118.96,962.939 1130.5,957C 1143.46,953.511 1156.46,950.177 1169.5,947C 1180.98,946.11 1192.32,945.276 1203.5,944.5 Z"/></g>
<g><path style="opacity:1" fill="#ff5e0c" d="M 796.5,585.5 C 751.167,585.5 705.833,585.5 660.5,585.5C 671.974,565.84 686.307,548.34 703.5,533C 709.997,527.915 716.997,523.582 724.5,520C 744.379,511.732 761.212,515.898 775,532.5C 786.023,548.554 793.19,566.221 796.5,585.5 Z"/></g>
<g><path style="opacity:1" fill="#1f4db0" d="M 1241.5,596.5 C 1203.36,577.176 1163.2,563.509 1121,555.5C 1119.74,555.648 1118.58,555.982 1117.5,556.5C 1119.65,548.267 1121.98,540.101 1124.5,532C 1154.81,530.027 1185.15,528.527 1215.5,527.5C 1223.88,550.599 1232.55,573.599 1241.5,596.5 Z"/></g>
<g><path style="opacity:1" fill="#2555b5" d="M 1241.5,596.5 C 1247.2,609.933 1252.54,623.6 1257.5,637.5C 1212.63,609.092 1163.96,590.092 1111.5,580.5C 1113.37,572.471 1115.37,564.471 1117.5,556.5C 1118.58,555.982 1119.74,555.648 1121,555.5C 1163.2,563.509 1203.36,577.176 1241.5,596.5 Z"/></g>
<g><path style="opacity:1" fill="#295ab9" d="M 1111.5,580.5 C 1163.96,590.092 1212.63,609.092 1257.5,637.5C 1264.2,653.266 1270.54,669.266 1276.5,685.5C 1238.9,654.517 1196.57,631.683 1149.5,617C 1134.74,612.415 1119.74,608.915 1104.5,606.5C 1104.74,607.791 1104.4,608.791 1103.5,609.5C 1105.39,599.592 1108.06,589.926 1111.5,580.5 Z"/></g>
<g><path style="opacity:1" fill="#2e60bd" d="M 1276.5,685.5 C 1282.39,699.285 1287.73,713.285 1292.5,727.5C 1303.82,731.163 1315.16,734.829 1326.5,738.5C 1378.07,809.543 1400.4,888.877 1393.5,976.5C 1384.51,968.84 1375.84,960.84 1367.5,952.5C 1367.67,848.013 1327.34,762.846 1246.5,697C 1204.01,664.598 1156.34,643.264 1103.5,633C 1101.07,632.297 1098.74,632.463 1096.5,633.5C 1098.54,625.31 1100.88,617.31 1103.5,609.5C 1104.4,608.791 1104.74,607.791 1104.5,606.5C 1119.74,608.915 1134.74,612.415 1149.5,617C 1196.57,631.683 1238.9,654.517 1276.5,685.5 Z"/></g>
<g><path style="opacity:1" fill="#ff4107" d="M 426.5,611.5 C 426.5,661.5 426.5,711.5 426.5,761.5C 399.748,877.687 385.748,995.52 384.5,1115C 383.277,1187.28 391.444,1258.44 409,1328.5C 413.816,1345.13 419.483,1361.47 426,1377.5C 426.5,1427.5 426.667,1477.5 426.5,1527.5C 420.777,1520.41 415.277,1513.08 410,1505.5C 388.801,1469.25 373.467,1430.58 364,1389.5C 347.703,1315.24 339.87,1240.07 340.5,1164C 343.792,975.758 372.458,791.591 426.5,611.5 Z"/></g>
<g><path style="opacity:1" fill="#3264c0" d="M 1367.5,952.5 C 1363.75,949.959 1360.41,946.959 1357.5,943.5C 1355.21,851.097 1319.55,774.264 1250.5,713C 1205.03,675.432 1153.03,651.599 1094.5,641.5C 1095.17,638.833 1095.83,636.167 1096.5,633.5C 1098.74,632.463 1101.07,632.297 1103.5,633C 1156.34,643.264 1204.01,664.598 1246.5,697C 1327.34,762.846 1367.67,848.013 1367.5,952.5 Z"/></g>
<g><path style="opacity:1" fill="#3468c3" d="M 1094.5,641.5 C 1153.03,651.599 1205.03,675.432 1250.5,713C 1319.55,774.264 1355.21,851.097 1357.5,943.5C 1349.63,939.07 1341.96,934.403 1334.5,929.5C 1328.36,845.377 1292.69,776.544 1227.5,723C 1187.28,691.734 1141.95,671.567 1091.5,662.5C 1090.42,662.685 1089.42,663.018 1088.5,663.5C 1090.3,656.094 1092.3,648.761 1094.5,641.5 Z"/></g>
<g><path style="opacity:1" fill="#002795" d="M 1608.5,816.5 C 1597.54,766.618 1579.87,719.285 1555.5,674.5C 1564.94,668.608 1574.61,662.941 1584.5,657.5C 1606.82,677.315 1628.98,697.315 1651,717.5C 1651.32,719.553 1650.99,721.553 1650,723.5C 1636.43,754.727 1622.6,785.727 1608.5,816.5 Z"/></g>
<g><path style="opacity:1" fill="#396dc7" d="M 1334.5,929.5 C 1324.92,924.211 1315.25,919.211 1305.5,914.5C 1303.28,889.282 1296.78,864.949 1286,841.5C 1244.19,756.223 1176.35,705.223 1082.5,688.5C 1084.24,680.113 1086.24,671.78 1088.5,663.5C 1089.42,663.018 1090.42,662.685 1091.5,662.5C 1141.95,671.567 1187.28,691.734 1227.5,723C 1292.69,776.544 1328.36,845.377 1334.5,929.5 Z"/></g>
<g><path style="opacity:1" fill="#062f9a" d="M 1555.5,674.5 C 1579.87,719.285 1597.54,766.618 1608.5,816.5C 1602.4,832.146 1595.73,847.479 1588.5,862.5C 1580.27,800.812 1561.27,742.812 1531.5,688.5C 1539.16,683.332 1547.16,678.665 1555.5,674.5 Z"/></g>
<g><path style="opacity:1" fill="#0a349e" d="M 1531.5,688.5 C 1561.27,742.812 1580.27,800.812 1588.5,862.5C 1583.26,876.575 1577.26,890.242 1570.5,903.5C 1565.76,831.208 1546.43,763.208 1512.5,699.5C 1518.33,695.079 1524.67,691.412 1531.5,688.5 Z"/></g>
<g><path style="opacity:1" fill="#0d38a0" d="M 1512.5,699.5 C 1546.43,763.208 1565.76,831.208 1570.5,903.5C 1569.46,907.248 1568.13,910.915 1566.5,914.5C 1568.18,918.516 1569.84,922.516 1571.5,926.5C 1570.98,1071.29 1523.48,1197.95 1429,1306.5C 1309.47,1437.74 1160.47,1505.74 982,1510.5C 929.159,1509.9 877.326,1502.4 826.5,1488C 817.149,1485.5 808.149,1482.33 799.5,1478.5C 801.463,1472.92 803.796,1467.59 806.5,1462.5C 811.418,1465.32 816.752,1467.48 822.5,1469C 995.5,1517.05 1156.83,1491.72 1306.5,1393C 1313.83,1387.67 1321.17,1382.33 1328.5,1377C 1327.91,1376.54 1327.24,1376.37 1326.5,1376.5C 1330.28,1374.11 1334.28,1371.94 1338.5,1370C 1351.32,1360.09 1364.32,1350.42 1377.5,1341C 1388.33,1328.83 1399.17,1316.67 1410,1304.5C 1412.61,1299.6 1415.44,1294.94 1418.5,1290.5C 1418.37,1291.24 1418.54,1291.91 1419,1292.5C 1527.45,1165.41 1570.12,1018.75 1547,852.5C 1538.11,802.334 1521.94,754.667 1498.5,709.5C 1498.04,708.702 1497.38,708.369 1496.5,708.5C 1501.5,704.997 1506.83,701.997 1512.5,699.5 Z"/></g>
<g><path style="opacity:1" fill="#2e60bd" d="M 799.5,714.5 C 797.217,714.608 795.217,715.441 793.5,717C 780.696,728.804 768.196,740.97 756,753.5C 745.239,766.721 734.739,780.054 724.5,793.5C 719.774,786.398 715.274,779.064 711,771.5C 710.333,770.167 710.333,768.833 711,767.5C 731,745.5 751,723.5 771,701.5C 780.627,705.755 790.127,710.089 799.5,714.5 Z"/></g>
<g><path style="opacity:1" fill="#3e74cb" d="M 1082.5,688.5 C 1176.35,705.223 1244.19,756.223 1286,841.5C 1296.78,864.949 1303.28,889.282 1305.5,914.5C 1293.87,911.068 1282.53,907.068 1271.5,902.5C 1254.25,827.697 1210.91,773.197 1141.5,739C 1119.84,728.834 1097.17,722.001 1073.5,718.5C 1075.9,708.189 1078.9,698.189 1082.5,688.5 Z"/></g>
<g><path style="opacity:1" fill="#113ca3" d="M 1496.5,708.5 C 1497.38,708.369 1498.04,708.702 1498.5,709.5C 1521.94,754.667 1538.11,802.334 1547,852.5C 1570.12,1018.75 1527.45,1165.41 1419,1292.5C 1418.54,1291.91 1418.37,1291.24 1418.5,1290.5C 1424.84,1279.98 1431.01,1269.31 1437,1258.5C 1442.23,1242.95 1447.73,1227.62 1453.5,1212.5C 1453.81,1213.74 1454.31,1213.74 1455,1212.5C 1533.76,1084.49 1553.76,947.828 1515,802.5C 1505.93,773.118 1494.43,744.784 1480.5,717.5C 1485.5,713.997 1490.83,710.997 1496.5,708.5 Z"/></g>
<g><path style="opacity:1" fill="#3467c2" d="M 799.5,714.5 C 809.354,718.597 819.02,722.93 828.5,727.5C 794.858,753.637 766.691,784.637 744,820.5C 742.991,822.025 742.491,823.692 742.5,825.5C 735.997,815.165 729.997,804.498 724.5,793.5C 734.739,780.054 745.239,766.721 756,753.5C 768.196,740.97 780.696,728.804 793.5,717C 795.217,715.441 797.217,714.608 799.5,714.5 Z"/></g>
<g><path style="opacity:1" fill="#4379cf" d="M 1073.5,718.5 C 1097.17,722.001 1119.84,728.834 1141.5,739C 1210.91,773.197 1254.25,827.697 1271.5,902.5C 1263.1,900.545 1254.77,898.879 1246.5,897.5C 1247.12,897.083 1247.46,896.416 1247.5,895.5C 1227.64,829.8 1186.31,782.967 1123.5,755C 1105.18,747.283 1086.18,742.116 1066.5,739.5C 1069.59,732.859 1071.92,725.859 1073.5,718.5 Z"/></g>
<g><path style="opacity:1" fill="#1440a6" d="M 1480.5,717.5 C 1494.43,744.784 1505.93,773.118 1515,802.5C 1553.76,947.828 1533.76,1084.49 1455,1212.5C 1454.31,1213.74 1453.81,1213.74 1453.5,1212.5C 1454.94,1197.95 1456.94,1183.62 1459.5,1169.5C 1505.88,1082.77 1524.38,989.768 1515,890.5C 1508.66,832.666 1492.16,777.999 1465.5,726.5C 1470.22,723.137 1475.22,720.137 1480.5,717.5 Z"/></g>
<g><path style="opacity:1" fill="#1743a9" d="M 1465.5,726.5 C 1492.16,777.999 1508.66,832.666 1515,890.5C 1524.38,989.768 1505.88,1082.77 1459.5,1169.5C 1460.47,1159.85 1460.47,1150.18 1459.5,1140.5C 1460.12,1140.61 1460.62,1140.94 1461,1141.5C 1515.68,1020.1 1519.68,897.104 1473,772.5C 1467.44,759.714 1461.61,747.047 1455.5,734.5C 1454.68,733.614 1453.68,733.281 1452.5,733.5C 1456.58,730.773 1460.91,728.439 1465.5,726.5 Z"/></g>
<g><path style="opacity:1" fill="#1a47ac" d="M 1452.5,733.5 C 1453.68,733.281 1454.68,733.614 1455.5,734.5C 1461.61,747.047 1467.44,759.714 1473,772.5C 1519.68,897.104 1515.68,1020.1 1461,1141.5C 1460.62,1140.94 1460.12,1140.61 1459.5,1140.5C 1460.3,1124.41 1458.3,1108.74 1453.5,1093.5C 1458.38,1083.02 1462.22,1072.02 1465,1060.5C 1492.2,958.727 1484.53,859.727 1442,763.5C 1439.06,757.28 1435.89,751.28 1432.5,745.5C 1438.8,741.012 1445.47,737.012 1452.5,733.5 Z"/></g>
<g><path style="opacity:1" fill="#396dc7" d="M 828.5,727.5 C 838.134,730.988 847.467,734.988 856.5,739.5C 816.123,767.04 783.957,802.04 760,844.5C 758.589,846.65 757.755,848.984 757.5,851.5C 752.01,843.196 747.01,834.529 742.5,825.5C 742.491,823.692 742.991,822.025 744,820.5C 766.691,784.637 794.858,753.637 828.5,727.5 Z"/></g>
<g><path style="opacity:1" fill="#b02f05" d="M 434.5,585.5 C 447.5,585.5 460.5,585.5 473.5,585.5C 487.833,585.5 502.167,585.5 516.5,585.5C 532.833,585.5 549.167,585.5 565.5,585.5C 580.833,585.5 596.167,585.5 611.5,585.5C 627.833,585.5 644.167,585.5 660.5,585.5C 705.833,585.5 751.167,585.5 796.5,585.5C 812.833,585.5 829.167,585.5 845.5,585.5C 860.833,585.5 876.167,585.5 891.5,585.5C 907.833,585.5 924.167,585.5 940.5,585.5C 954.833,585.5 969.167,585.5 983.5,585.5C 988.833,585.5 994.167,585.5 999.5,585.5C 809.001,586.5 618.334,586.833 427.5,586.5C 427.5,685.167 427.5,783.833 427.5,882.5C 426.501,842.337 426.168,802.003 426.5,761.5C 426.5,711.5 426.5,661.5 426.5,611.5C 426.5,602.833 426.5,594.167 426.5,585.5C 429.167,585.5 431.833,585.5 434.5,585.5 Z"/></g>
<g><path style="opacity:1" fill="#295ab9" d="M 1326.5,738.5 C 1340.75,743.696 1355.09,748.696 1369.5,753.5C 1415.53,832.638 1431.2,917.305 1416.5,1007.5C 1408.59,997.345 1400.92,987.012 1393.5,976.5C 1400.4,888.877 1378.07,809.543 1326.5,738.5 Z"/></g>
<g><path style="opacity:1" fill="#3e74cb" d="M 856.5,739.5 C 868.137,743.989 879.47,748.989 890.5,754.5C 850.709,777.456 818.542,808.456 794,847.5C 787.28,858.943 781.113,870.61 775.5,882.5C 769.263,872.366 763.263,862.033 757.5,851.5C 757.755,848.984 758.589,846.65 760,844.5C 783.957,802.04 816.123,767.04 856.5,739.5 Z"/></g>
<g><path style="opacity:1" fill="#4880d4" d="M 1066.5,739.5 C 1086.18,742.116 1105.18,747.283 1123.5,755C 1186.31,782.967 1227.64,829.8 1247.5,895.5C 1247.46,896.416 1247.12,897.083 1246.5,897.5C 1234.49,896.26 1222.49,894.927 1210.5,893.5C 1211.09,892.849 1211.76,892.182 1212.5,891.5C 1187.35,829.522 1142.35,790.022 1077.5,773C 1054.07,767.703 1030.41,766.203 1006.5,768.5C 1026.19,758.324 1046.19,748.658 1066.5,739.5 Z"/></g>
<g><path style="opacity:1" fill="#204eb0" d="M 1432.5,745.5 C 1435.89,751.28 1439.06,757.28 1442,763.5C 1484.53,859.727 1492.2,958.727 1465,1060.5C 1462.22,1072.02 1458.38,1083.02 1453.5,1093.5C 1449.98,1076.09 1444.32,1059.43 1436.5,1043.5C 1458.41,955.014 1451.58,868.681 1416,784.5C 1412.44,776.598 1408.6,768.931 1404.5,761.5C 1413.5,755.664 1422.83,750.331 1432.5,745.5 Z"/></g>
<g><path style="opacity:1" fill="#4379cf" d="M 890.5,754.5 C 898.409,757.463 906.075,760.796 913.5,764.5C 854.55,796.368 813.217,843.701 789.5,906.5C 784.332,898.836 779.665,890.836 775.5,882.5C 781.113,870.61 787.28,858.943 794,847.5C 818.542,808.456 850.709,777.456 890.5,754.5 Z"/></g>
<g><path style="opacity:1" fill="#2454b4" d="M 1369.5,753.5 C 1378.99,757.221 1388.66,760.554 1398.5,763.5C 1400.52,762.822 1402.52,762.156 1404.5,761.5C 1408.6,768.931 1412.44,776.598 1416,784.5C 1451.58,868.681 1458.41,955.014 1436.5,1043.5C 1430.83,1030.82 1424.17,1018.82 1416.5,1007.5C 1431.2,917.305 1415.53,832.638 1369.5,753.5 Z"/></g>
<g><path style="opacity:1" fill="#fd4608" d="M 426.5,761.5 C 426.168,802.003 426.501,842.337 427.5,882.5C 433.167,882.5 438.833,882.5 444.5,882.5C 436.317,940.884 431.65,999.551 430.5,1058.5C 429.209,1058.26 428.209,1058.6 427.5,1059.5C 427.833,1252 427.5,1444.33 426.5,1636.5C 426.5,1626.83 426.5,1617.17 426.5,1607.5C 426.5,1580.83 426.5,1554.17 426.5,1527.5C 426.667,1477.5 426.5,1427.5 426,1377.5C 419.483,1361.47 413.816,1345.13 409,1328.5C 391.444,1258.44 383.277,1187.28 384.5,1115C 385.748,995.52 399.748,877.687 426.5,761.5 Z"/></g>
<g><path style="opacity:1" fill="#4d86d8" d="M 1210.5,893.5 C 1202.17,893.976 1193.84,894.309 1185.5,894.5C 1185.61,893.883 1185.94,893.383 1186.5,893C 1157.96,833.829 1110.96,800.162 1045.5,792C 963.388,787.968 900.555,820.468 857,889.5C 825.539,947.04 824.539,1005.04 854,1063.5C 874.614,1098.11 903.781,1122.61 941.5,1137C 943.193,1137.48 944.527,1136.98 945.5,1135.5C 945.5,1142.17 945.5,1148.83 945.5,1155.5C 945.5,1158.17 945.5,1160.83 945.5,1163.5C 869.848,1139.55 824.682,1088.55 810,1010.5C 808.918,1000.52 808.084,990.516 807.5,980.5C 809.921,971.653 812.921,962.986 816.5,954.5C 814.555,951.607 812.889,948.607 811.5,945.5C 825.863,878.907 862.53,828.74 921.5,795C 931.398,789.381 941.732,784.881 952.5,781.5C 956.145,782.987 959.812,784.487 963.5,786C 965.167,786.667 966.833,786.667 968.5,786C 981.069,779.881 993.735,774.048 1006.5,768.5C 1030.41,766.203 1054.07,767.703 1077.5,773C 1142.35,790.022 1187.35,829.522 1212.5,891.5C 1211.76,892.182 1211.09,892.849 1210.5,893.5 Z"/></g>
<g><path style="opacity:1" fill="#4880d4" d="M 913.5,764.5 C 926.685,769.93 939.685,775.597 952.5,781.5C 941.732,784.881 931.398,789.381 921.5,795C 862.53,828.74 825.863,878.907 811.5,945.5C 803.41,932.994 796.077,919.994 789.5,906.5C 813.217,843.701 854.55,796.368 913.5,764.5 Z"/></g>
<g><path style="opacity:1" fill="#508adb" d="M 1185.5,894.5 C 1182.17,894.5 1178.83,894.5 1175.5,894.5C 1149.77,841.264 1107.44,810.431 1048.5,802C 977.333,796.511 919.833,821.678 876,877.5C 836.964,933.95 831.964,993.284 861,1055.5C 880.535,1090.21 909.035,1114.21 946.5,1127.5C 945.908,1130.13 945.575,1132.79 945.5,1135.5C 944.527,1136.98 943.193,1137.48 941.5,1137C 903.781,1122.61 874.614,1098.11 854,1063.5C 824.539,1005.04 825.539,947.04 857,889.5C 900.555,820.468 963.388,787.968 1045.5,792C 1110.96,800.162 1157.96,833.829 1186.5,893C 1185.94,893.383 1185.61,893.883 1185.5,894.5 Z"/></g>
<g><path style="opacity:1" fill="#538ddd" d="M 1175.5,894.5 C 1168.82,895.17 1162.15,896.17 1155.5,897.5C 1129.55,850.332 1089.55,824.499 1035.5,820C 965.847,819.063 913.681,848.563 879,908.5C 855.349,955.383 855.682,1002.05 880,1048.5C 896.372,1075.53 919.039,1095.53 948,1108.5C 948.383,1107.94 948.883,1107.61 949.5,1107.5C 948.315,1114.13 947.315,1120.79 946.5,1127.5C 909.035,1114.21 880.535,1090.21 861,1055.5C 831.964,993.284 836.964,933.95 876,877.5C 919.833,821.678 977.333,796.511 1048.5,802C 1107.44,810.431 1149.77,841.264 1175.5,894.5 Z"/></g>
<g><path style="opacity:1" fill="#5691e0" d="M 1155.5,897.5 C 1150.27,899.142 1144.93,900.475 1139.5,901.5C 1130.36,882.843 1117.02,867.676 1099.5,856C 1048.61,826.299 997.61,826.299 946.5,856C 889.185,894.489 867.685,947.655 882,1015.5C 890.738,1043.17 906.904,1065.33 930.5,1082C 936.975,1086.57 943.975,1090.07 951.5,1092.5C 950.462,1097.44 949.795,1102.44 949.5,1107.5C 948.883,1107.61 948.383,1107.94 948,1108.5C 919.039,1095.53 896.372,1075.53 880,1048.5C 855.682,1002.05 855.349,955.383 879,908.5C 913.681,848.563 965.847,819.063 1035.5,820C 1089.55,824.499 1129.55,850.332 1155.5,897.5 Z"/></g>
<g><path style="opacity:1" fill="#5894e2" d="M 1139.5,901.5 C 1135.52,902.497 1131.52,903.497 1127.5,904.5C 1107.83,871.735 1078.83,852.569 1040.5,847C 982.205,842.398 937.372,864.565 906,913.5C 881.022,959.51 883.022,1004.18 912,1047.5C 923.684,1062.03 937.851,1073.36 954.5,1081.5C 952.892,1084.99 951.892,1088.66 951.5,1092.5C 943.975,1090.07 936.975,1086.57 930.5,1082C 906.904,1065.33 890.738,1043.17 882,1015.5C 867.685,947.655 889.185,894.489 946.5,856C 997.61,826.299 1048.61,826.299 1099.5,856C 1117.02,867.676 1130.36,882.843 1139.5,901.5 Z"/></g>
<g><path style="opacity:1" fill="#5b97e4" d="M 1127.5,904.5 C 1120.42,905.638 1113.75,907.971 1107.5,911.5C 1097.43,893.607 1082.76,880.774 1063.5,873C 1012.49,856.127 968.992,867.627 933,907.5C 907.748,940.015 902.081,975.681 916,1014.5C 925.158,1035.82 939.991,1051.82 960.5,1062.5C 958.898,1068.97 956.898,1075.3 954.5,1081.5C 937.851,1073.36 923.684,1062.03 912,1047.5C 883.022,1004.18 881.022,959.51 906,913.5C 937.372,864.565 982.205,842.398 1040.5,847C 1078.83,852.569 1107.83,871.735 1127.5,904.5 Z"/></g>
<g><path style="opacity:1" fill="#609de9" d="M 1107.5,911.5 C 1096.83,916.502 1086.16,921.502 1075.5,926.5C 1075.65,925.448 1075.48,924.448 1075,923.5C 1050.47,897.989 1021.64,891.822 988.5,905C 950.257,925.321 936.423,956.488 947,998.5C 952.864,1012.18 962.031,1022.85 974.5,1030.5C 972.612,1034.61 970.446,1038.61 968,1042.5C 965.962,1049.46 963.462,1056.13 960.5,1062.5C 939.991,1051.82 925.158,1035.82 916,1014.5C 902.081,975.681 907.748,940.015 933,907.5C 968.992,867.627 1012.49,856.127 1063.5,873C 1082.76,880.774 1097.43,893.607 1107.5,911.5 Z"/></g>
<g><path style="opacity:1" fill="#ff4e09" d="M 444.5,882.5 C 459.833,882.5 475.167,882.5 490.5,882.5C 483.411,941.003 481.411,999.67 484.5,1058.5C 466.5,1058.5 448.5,1058.5 430.5,1058.5C 431.65,999.551 436.317,940.884 444.5,882.5 Z"/></g>
<g><path style="opacity:1" fill="#ff540a" d="M 490.5,882.5 C 504.5,882.5 518.5,882.5 532.5,882.5C 528.023,930.895 528.523,979.228 534,1027.5C 535.772,1037.86 537.605,1048.19 539.5,1058.5C 521.167,1058.5 502.833,1058.5 484.5,1058.5C 481.411,999.67 483.411,941.003 490.5,882.5 Z"/></g>
<g><path style="opacity:1" fill="#fd5a0b" d="M 532.5,882.5 C 546.167,882.5 559.833,882.5 573.5,882.5C 571.24,917.586 574.073,952.252 582,986.5C 586.401,1005.48 595.568,1021.65 609.5,1035C 618.203,1041.26 627.869,1043.59 638.5,1042C 645.914,1040.58 652.914,1038.08 659.5,1034.5C 659.5,1040.5 659.5,1046.5 659.5,1052.5C 653.391,1055.43 647.057,1057.76 640.5,1059.5C 569.5,1059.5 498.5,1059.5 427.5,1059.5C 428.209,1058.6 429.209,1058.26 430.5,1058.5C 448.5,1058.5 466.5,1058.5 484.5,1058.5C 502.833,1058.5 521.167,1058.5 539.5,1058.5C 537.605,1048.19 535.772,1037.86 534,1027.5C 528.523,979.228 528.023,930.895 532.5,882.5 Z"/></g>
<g><path style="opacity:1" fill="#ff5e0b" d="M 573.5,882.5 C 579.833,882.5 586.167,882.5 592.5,882.5C 591.247,909.812 594.747,936.478 603,962.5C 607.706,978.143 617.206,989.643 631.5,997C 641.145,999.451 650.479,998.617 659.5,994.5C 659.5,1007.83 659.5,1021.17 659.5,1034.5C 652.914,1038.08 645.914,1040.58 638.5,1042C 627.869,1043.59 618.203,1041.26 609.5,1035C 595.568,1021.65 586.401,1005.48 582,986.5C 574.073,952.252 571.24,917.586 573.5,882.5 Z"/></g>
<g><path style="opacity:1" fill="#ff620d" d="M 592.5,882.5 C 614.833,882.5 637.167,882.5 659.5,882.5C 659.5,919.833 659.5,957.167 659.5,994.5C 650.479,998.617 641.145,999.451 631.5,997C 617.206,989.643 607.706,978.143 603,962.5C 594.747,936.478 591.247,909.812 592.5,882.5 Z"/></g>
<g><path style="opacity:0.993" fill="#000137" d="M 1210.5,893.5 C 1222.49,894.927 1234.49,896.26 1246.5,897.5C 1254.77,898.879 1263.1,900.545 1271.5,902.5C 1282.53,907.068 1293.87,911.068 1305.5,914.5C 1315.25,919.211 1324.92,924.211 1334.5,929.5C 1341.96,934.403 1349.63,939.07 1357.5,943.5C 1360.41,946.959 1363.75,949.959 1367.5,952.5C 1375.84,960.84 1384.51,968.84 1393.5,976.5C 1400.92,987.012 1408.59,997.345 1416.5,1007.5C 1424.17,1018.82 1430.83,1030.82 1436.5,1043.5C 1444.32,1059.43 1449.98,1076.09 1453.5,1093.5C 1458.3,1108.74 1460.3,1124.41 1459.5,1140.5C 1460.47,1150.18 1460.47,1159.85 1459.5,1169.5C 1456.94,1183.62 1454.94,1197.95 1453.5,1212.5C 1447.73,1227.62 1442.23,1242.95 1437,1258.5C 1431.01,1269.31 1424.84,1279.98 1418.5,1290.5C 1415.44,1294.94 1412.61,1299.6 1410,1304.5C 1399.17,1316.67 1388.33,1328.83 1377.5,1341C 1364.32,1350.42 1351.32,1360.09 1338.5,1370C 1334.28,1371.94 1330.28,1374.11 1326.5,1376.5C 1315.28,1381.11 1304.28,1386.28 1293.5,1392C 1278.34,1396.04 1263.34,1400.2 1248.5,1404.5C 1231.13,1406.66 1213.63,1407.99 1196,1408.5C 1189.41,1408.54 1182.91,1407.88 1176.5,1406.5C 1161.53,1405.22 1146.87,1402.55 1132.5,1398.5C 1124.72,1396.11 1117.06,1393.44 1109.5,1390.5C 1100.51,1388.18 1092.18,1384.51 1084.5,1379.5C 1073.17,1372.83 1061.83,1366.17 1050.5,1359.5C 1041.86,1351.86 1033.19,1344.2 1024.5,1336.5C 1020.84,1332 1016.67,1328 1012,1324.5C 1009.35,1320.03 1006.18,1316.03 1002.5,1312.5C 1000.56,1308.29 997.898,1304.63 994.5,1301.5C 989.242,1294.64 984.242,1287.64 979.5,1280.5C 975.948,1271.06 971.615,1262.06 966.5,1253.5C 964.623,1248.07 962.456,1242.74 960,1237.5C 958.452,1230.63 956.618,1223.96 954.5,1217.5C 953.102,1209.24 951.102,1201.24 948.5,1193.5C 947.268,1180.71 946.268,1168.05 945.5,1155.5C 945.5,1148.83 945.5,1142.17 945.5,1135.5C 945.575,1132.79 945.908,1130.13 946.5,1127.5C 947.315,1120.79 948.315,1114.13 949.5,1107.5C 949.795,1102.44 950.462,1097.44 951.5,1092.5C 951.892,1088.66 952.892,1084.99 954.5,1081.5C 956.898,1075.3 958.898,1068.97 960.5,1062.5C 963.462,1056.13 965.962,1049.46 968,1042.5C 970.446,1038.61 972.612,1034.61 974.5,1030.5C 980.403,1021.7 986.069,1012.7 991.5,1003.5C 1003.54,987.617 1016.54,972.45 1030.5,958C 1036.75,953.723 1042.75,949.223 1048.5,944.5C 1056.98,937.756 1065.98,931.756 1075.5,926.5C 1086.16,921.502 1096.83,916.502 1107.5,911.5C 1113.75,907.971 1120.42,905.638 1127.5,904.5C 1131.52,903.497 1135.52,902.497 1139.5,901.5C 1144.93,900.475 1150.27,899.142 1155.5,897.5C 1162.15,896.17 1168.82,895.17 1175.5,894.5C 1178.83,894.5 1182.17,894.5 1185.5,894.5C 1193.84,894.309 1202.17,893.976 1210.5,893.5 Z M 1203.5,944.5 C 1192.32,945.276 1180.98,946.11 1169.5,947C 1156.46,950.177 1143.46,953.511 1130.5,957C 1118.96,962.939 1107.29,968.606 1095.5,974C 1085.5,981.333 1075.5,988.667 1065.5,996C 1055.3,1006.53 1045.46,1017.37 1036,1028.5C 1029,1040.5 1022,1052.5 1015,1064.5C 988.024,1130.57 991.69,1194.9 1026,1257.5C 1034,1268.17 1042,1278.83 1050,1289.5C 1060.22,1299.35 1070.72,1308.85 1081.5,1318C 1093.5,1325 1105.5,1332 1117.5,1339C 1130.36,1343.73 1143.36,1348.07 1156.5,1352C 1169.49,1353.88 1182.49,1355.71 1195.5,1357.5C 1208.16,1356.56 1220.82,1355.72 1233.5,1355C 1304.96,1341.07 1357.13,1301.9 1390,1237.5C 1394.33,1225.17 1398.67,1212.83 1403,1200.5C 1417.61,1130.62 1402.28,1068.28 1357,1013.5C 1346.5,1003.67 1336,993.833 1325.5,984C 1313.17,977 1300.83,970 1288.5,963C 1276.76,959.197 1265.09,955.197 1253.5,951C 1236.92,948.036 1220.26,945.87 1203.5,944.5 Z"/></g>
<g><path style="opacity:1" fill="#66a4ee" d="M 1075.5,926.5 C 1065.98,931.756 1056.98,937.756 1048.5,944.5C 1048.29,943.078 1047.79,941.745 1047,940.5C 1028.58,926.382 1009.75,925.882 990.5,939C 972.573,955.598 969.74,974.431 982,995.5C 984.747,998.754 987.914,1001.42 991.5,1003.5C 986.069,1012.7 980.403,1021.7 974.5,1030.5C 962.031,1022.85 952.864,1012.18 947,998.5C 936.423,956.488 950.257,925.321 988.5,905C 1021.64,891.822 1050.47,897.989 1075,923.5C 1075.48,924.448 1075.65,925.448 1075.5,926.5 Z"/></g>
<g><path style="opacity:1" fill="#0a349e" d="M 1571.5,926.5 C 1579.01,940.854 1586.01,955.521 1592.5,970.5C 1578.74,1126.12 1515.41,1257.29 1402.5,1364C 1262.36,1490.82 1097.7,1545.16 908.5,1527C 868.191,1521.92 828.857,1512.76 790.5,1499.5C 792.932,1492.19 795.932,1485.19 799.5,1478.5C 808.149,1482.33 817.149,1485.5 826.5,1488C 877.326,1502.4 929.159,1509.9 982,1510.5C 1160.47,1505.74 1309.47,1437.74 1429,1306.5C 1523.48,1197.95 1570.98,1071.29 1571.5,926.5 Z"/></g>
<g><path style="opacity:1" fill="#6baaf2" d="M 1048.5,944.5 C 1042.75,949.223 1036.75,953.723 1030.5,958C 1016.54,972.45 1003.54,987.617 991.5,1003.5C 987.914,1001.42 984.747,998.754 982,995.5C 969.74,974.431 972.573,955.598 990.5,939C 1009.75,925.882 1028.58,926.382 1047,940.5C 1047.79,941.745 1048.29,943.078 1048.5,944.5 Z"/></g>
<g><path style="opacity:1" fill="#072f9a" d="M 1592.5,970.5 C 1596.62,977.067 1599.95,984.067 1602.5,991.5C 1588.39,1115 1541.56,1224 1462,1318.5C 1345.29,1452.61 1197.79,1526.94 1019.5,1541.5C 1014.93,1540.48 1010.43,1539.14 1006,1537.5C 994.036,1544.56 981.869,1551.23 969.5,1557.5C 904.257,1556.58 840.923,1545.25 779.5,1523.5C 782.656,1515.19 786.323,1507.19 790.5,1499.5C 828.857,1512.76 868.191,1521.92 908.5,1527C 1097.7,1545.16 1262.36,1490.82 1402.5,1364C 1515.41,1257.29 1578.74,1126.12 1592.5,970.5 Z"/></g>
<g><path style="opacity:1" fill="#052d99" d="M 1602.5,991.5 C 1607.28,999.399 1611.28,1007.73 1614.5,1016.5C 1590.42,1163.18 1524.09,1286.68 1415.5,1387C 1312.13,1479.68 1191.13,1535.18 1052.5,1553.5C 1041.27,1549.87 1030.27,1545.87 1019.5,1541.5C 1197.79,1526.94 1345.29,1452.61 1462,1318.5C 1541.56,1224 1588.39,1115 1602.5,991.5 Z"/></g>
<g><path style="opacity:1" fill="#477fd3" d="M 807.5,980.5 C 808.084,990.516 808.918,1000.52 810,1010.5C 824.682,1088.55 869.848,1139.55 945.5,1163.5C 945.5,1160.83 945.5,1158.17 945.5,1155.5C 946.268,1168.05 947.268,1180.71 948.5,1193.5C 948.5,1194.5 948.5,1195.5 948.5,1196.5C 877.571,1180.06 826.404,1139.06 795,1073.5C 790.92,1064.01 787.42,1054.35 784.5,1044.5C 791.646,1022.9 799.313,1001.56 807.5,980.5 Z"/></g>
<g><path style="opacity:1" fill="#022996" d="M 1614.5,1016.5 C 1620.08,1017.67 1625.41,1019.34 1630.5,1021.5C 1612.43,1135.61 1567.26,1237.28 1495,1326.5C 1388.3,1454.64 1252.47,1534.14 1087.5,1565C 1088.06,1565.38 1088.39,1565.88 1088.5,1566.5C 1076.27,1562.54 1064.27,1558.2 1052.5,1553.5C 1191.13,1535.18 1312.13,1479.68 1415.5,1387C 1524.09,1286.68 1590.42,1163.18 1614.5,1016.5 Z"/></g>
<g><path style="opacity:1" fill="#002694" d="M 1630.5,1021.5 C 1694.31,1037.73 1757.97,1054.57 1821.5,1072C 1823.27,1102.12 1824.77,1132.29 1826,1162.5C 1760.01,1188.72 1693.84,1214.55 1627.5,1240C 1614.25,1275.42 1601.58,1311.09 1589.5,1347C 1625.09,1408.84 1660.42,1470.84 1695.5,1533C 1675.71,1555.96 1655.37,1578.46 1634.5,1600.5C 1570.17,1572 1505.83,1543.5 1441.5,1515C 1439.83,1514.33 1438.17,1514.33 1436.5,1515C 1402.83,1530.83 1369.5,1547.17 1336.5,1564C 1318.23,1632.58 1299.73,1701.08 1281,1769.5C 1252.57,1771.3 1224.07,1772.97 1195.5,1774.5C 1193.57,1774.46 1191.74,1774.13 1190,1773.5C 1164.53,1707.42 1138.86,1641.42 1113,1575.5C 1104.78,1572.59 1096.62,1569.59 1088.5,1566.5C 1088.39,1565.88 1088.06,1565.38 1087.5,1565C 1252.47,1534.14 1388.3,1454.64 1495,1326.5C 1567.26,1237.28 1612.43,1135.61 1630.5,1021.5 Z"/></g>
<g><path style="opacity:1" fill="#4379cf" d="M 784.5,1044.5 C 787.42,1054.35 790.92,1064.01 795,1073.5C 826.404,1139.06 877.571,1180.06 948.5,1196.5C 948.5,1195.5 948.5,1194.5 948.5,1193.5C 951.102,1201.24 953.102,1209.24 954.5,1217.5C 954.719,1218.68 954.386,1219.68 953.5,1220.5C 864.103,1202.59 802.436,1151.42 768.5,1067C 768.743,1066.1 769.077,1065.26 769.5,1064.5C 772.197,1063.07 775.031,1061.74 778,1060.5C 780.291,1055.11 782.457,1049.77 784.5,1044.5 Z"/></g>
<g><path style="opacity:1" fill="#3d73cb" d="M 769.5,1064.5 C 769.077,1065.26 768.743,1066.1 768.5,1067C 802.436,1151.42 864.103,1202.59 953.5,1220.5C 954.386,1219.68 954.719,1218.68 954.5,1217.5C 956.618,1223.96 958.452,1230.63 960,1237.5C 962.456,1242.74 964.623,1248.07 966.5,1253.5C 886.408,1244.22 821.908,1207.89 773,1144.5C 761.548,1128.61 751.882,1111.61 744,1093.5C 741.575,1087.99 739.741,1082.33 738.5,1076.5C 748.671,1072.11 759.005,1068.11 769.5,1064.5 Z"/></g>
<g><path style="opacity:1" fill="#396dc7" d="M 738.5,1076.5 C 739.741,1082.33 741.575,1087.99 744,1093.5C 751.882,1111.61 761.548,1128.61 773,1144.5C 821.908,1207.89 886.408,1244.22 966.5,1253.5C 971.615,1262.06 975.948,1271.06 979.5,1280.5C 884.508,1275.09 808.008,1234.76 750,1159.5C 733.818,1137.14 721.318,1112.8 712.5,1086.5C 721.083,1082.97 729.75,1079.64 738.5,1076.5 Z"/></g>
<g><path style="opacity:1" fill="#3468c3" d="M 712.5,1086.5 C 721.318,1112.8 733.818,1137.14 750,1159.5C 808.008,1234.76 884.508,1275.09 979.5,1280.5C 984.242,1287.64 989.242,1294.64 994.5,1301.5C 897.993,1301.95 816.827,1266.95 751,1196.5C 725.032,1166.81 705.198,1133.31 691.5,1096C 692.056,1095.62 692.389,1095.12 692.5,1094.5C 699.082,1091.64 705.749,1088.97 712.5,1086.5 Z"/></g>
<g><path style="opacity:1" fill="#3264c0" d="M 692.5,1094.5 C 692.389,1095.12 692.056,1095.62 691.5,1096C 705.198,1133.31 725.032,1166.81 751,1196.5C 816.827,1266.95 897.993,1301.95 994.5,1301.5C 997.898,1304.63 1000.56,1308.29 1002.5,1312.5C 899.573,1313.77 813.073,1277.1 743,1202.5C 715.922,1172.03 695.755,1137.37 682.5,1098.5C 685.54,1096.65 688.873,1095.32 692.5,1094.5 Z"/></g>
<g><path style="opacity:1" fill="#2e60bd" d="M 682.5,1098.5 C 695.755,1137.37 715.922,1172.03 743,1202.5C 813.073,1277.1 899.573,1313.77 1002.5,1312.5C 1006.18,1316.03 1009.35,1320.03 1012,1324.5C 1016.67,1328 1020.84,1332 1024.5,1336.5C 919.324,1345.05 826.991,1314.88 747.5,1246C 706.033,1207.57 675.699,1161.74 656.5,1108.5C 665.083,1104.97 673.75,1101.64 682.5,1098.5 Z"/></g>
<g><path style="opacity:1" fill="#2454b4" d="M 631.5,1118.5 C 652.137,1176.62 685.303,1226.28 731,1267.5C 731.464,1268.09 731.631,1268.76 731.5,1269.5C 713.876,1265.1 696.543,1260.1 679.5,1254.5C 647.188,1217.24 622.521,1175.24 605.5,1128.5C 613.941,1124.61 622.607,1121.28 631.5,1118.5 Z"/></g>
<g><path style="opacity:1" fill="#1f4daf" d="M 605.5,1128.5 C 622.521,1175.24 647.188,1217.24 679.5,1254.5C 662.322,1250.77 645.322,1246.44 628.5,1241.5C 608.521,1213.55 592.188,1183.55 579.5,1151.5C 579.2,1146.9 579.533,1142.4 580.5,1138C 588.818,1134.73 597.151,1131.56 605.5,1128.5 Z"/></g>
<g><path style="opacity:1" fill="#1a47ab" d="M 579.5,1151.5 C 592.188,1183.55 608.521,1213.55 628.5,1241.5C 613.483,1237.6 598.65,1233.27 584,1228.5C 582.775,1202.8 581.275,1177.14 579.5,1151.5 Z"/></g>
<g><path style="opacity:1" fill="#295ab9" d="M 656.5,1108.5 C 675.699,1161.74 706.033,1207.57 747.5,1246C 826.991,1314.88 919.324,1345.05 1024.5,1336.5C 1033.19,1344.2 1041.86,1351.86 1050.5,1359.5C 965.977,1372.41 885.31,1359.75 808.5,1321.5C 802.318,1309.8 796.651,1297.8 791.5,1285.5C 771.496,1280.16 751.496,1274.83 731.5,1269.5C 731.631,1268.76 731.464,1268.09 731,1267.5C 685.303,1226.28 652.137,1176.62 631.5,1118.5C 639.598,1114.8 647.931,1111.46 656.5,1108.5 Z"/></g>
<g><path style="opacity:1" fill="#2454b4" d="M 808.5,1321.5 C 885.31,1359.75 965.977,1372.41 1050.5,1359.5C 1061.83,1366.17 1073.17,1372.83 1084.5,1379.5C 1084.21,1380.65 1083.38,1381.32 1082,1381.5C 994.633,1399.4 909.466,1392.07 826.5,1359.5C 819.991,1347.14 813.991,1334.48 808.5,1321.5 Z"/></g>
<g><path style="opacity:1" fill="#204fb1" d="M 826.5,1359.5 C 909.466,1392.07 994.633,1399.4 1082,1381.5C 1083.38,1381.32 1084.21,1380.65 1084.5,1379.5C 1092.18,1384.51 1100.51,1388.18 1109.5,1390.5C 1108.65,1391.97 1107.32,1392.8 1105.5,1393C 1014.66,1415.68 924.992,1411.84 836.5,1381.5C 833.167,1374.17 829.833,1366.83 826.5,1359.5 Z"/></g>
<g><path style="opacity:1" fill="#113ca3" d="M 1326.5,1376.5 C 1327.24,1376.37 1327.91,1376.54 1328.5,1377C 1321.17,1382.33 1313.83,1387.67 1306.5,1393C 1156.83,1491.72 995.5,1517.05 822.5,1469C 816.752,1467.48 811.418,1465.32 806.5,1462.5C 808.656,1456.2 811.322,1450.2 814.5,1444.5C 827.253,1450.25 840.587,1454.75 854.5,1458C 993.295,1490.82 1125.29,1473.15 1250.5,1405C 1249.91,1404.54 1249.24,1404.37 1248.5,1404.5C 1263.34,1400.2 1278.34,1396.04 1293.5,1392C 1304.28,1386.28 1315.28,1381.11 1326.5,1376.5 Z"/></g>
<g><path style="opacity:1" fill="#1e4caf" d="M 836.5,1381.5 C 924.992,1411.84 1014.66,1415.68 1105.5,1393C 1107.32,1392.8 1108.65,1391.97 1109.5,1390.5C 1117.06,1393.44 1124.72,1396.11 1132.5,1398.5C 1132.38,1399.59 1131.71,1400.25 1130.5,1400.5C 1041.59,1426.81 952.253,1428.31 862.5,1405C 854.105,1402.54 845.772,1399.87 837.5,1397C 836.944,1396.62 836.611,1396.12 836.5,1395.5C 836.924,1392.65 837.924,1389.98 839.5,1387.5C 838.487,1385.47 837.487,1383.47 836.5,1381.5 Z"/></g>
<g><path style="opacity:1" fill="#1a47ac" d="M 836.5,1395.5 C 836.611,1396.12 836.944,1396.62 837.5,1397C 845.772,1399.87 854.105,1402.54 862.5,1405C 952.253,1428.31 1041.59,1426.81 1130.5,1400.5C 1131.71,1400.25 1132.38,1399.59 1132.5,1398.5C 1146.87,1402.55 1161.53,1405.22 1176.5,1406.5C 1177.26,1407.27 1178.26,1407.77 1179.5,1408C 1063.69,1453.73 946.52,1457.56 828,1419.5C 826.97,1419.16 826.47,1418.5 826.5,1417.5C 829.323,1409.86 832.656,1402.53 836.5,1395.5 Z"/></g>
<g><path style="opacity:1" fill="#1541a7" d="M 1248.5,1404.5 C 1249.24,1404.37 1249.91,1404.54 1250.5,1405C 1125.29,1473.15 993.295,1490.82 854.5,1458C 840.587,1454.75 827.253,1450.25 814.5,1444.5C 818.13,1435.26 822.13,1426.26 826.5,1417.5C 826.47,1418.5 826.97,1419.16 828,1419.5C 946.52,1457.56 1063.69,1453.73 1179.5,1408C 1178.26,1407.77 1177.26,1407.27 1176.5,1406.5C 1182.91,1407.88 1189.41,1408.54 1196,1408.5C 1213.63,1407.99 1231.13,1406.66 1248.5,1404.5 Z"/></g>
<g><path style="opacity:1" fill="#002794" d="M 779.5,1523.5 C 840.923,1545.25 904.257,1556.58 969.5,1557.5C 920.06,1586.39 870.393,1615.06 820.5,1643.5C 798.184,1623.68 776.017,1603.68 754,1583.5C 761.624,1563.24 770.124,1543.24 779.5,1523.5 Z"/></g>
</svg>
